<?xml version="1.0" encoding="utf-8"?>
<!-- Generator: Adobe Illustrator 19.1.0, SVG Export Plug-In . SVG Version: 6.00 Build 0)  -->
<!DOCTYPE svg PUBLIC "-//W3C//DTD SVG 1.1//EN" "http://www.w3.org/Graphics/SVG/1.1/DTD/svg11.dtd">
<svg version="1.1" id="Layer_1" xmlns="http://www.w3.org/2000/svg" xmlns:xlink="http://www.w3.org/1999/xlink" x="0px" y="0px"
	 width="17.2px" height="17px" viewBox="0 0 17.2 17" enable-background="new 0 0 17.2 17" xml:space="preserve">
<g>
	<g>
		<path fill="#264A60" d="M9.9,3.2c2.5,0,4.6,1.7,5.3,4.1L17,4l-2.3-4h-4.6l-2,3.5C8.7,3.4,9.2,3.2,9.9,3.2z"/>
		<path fill="#264A60" d="M14.1,8C13.8,6,12,4.4,9.9,4.4c-0.6,0-1.1,0.1-1.6,0.3L10.2,8H14.1z"/>
	</g>
	<g>
		<path fill="#264A60" d="M7.3,5.3c-1,0.8-1.7,2-1.7,3.4c0,1.3,0.6,2.5,1.6,3.3l2-3.5L7.3,5.3z"/>
		<path fill="#264A60" d="M4.4,8.7c0-1.7,0.7-3.1,1.9-4.1h-4L0,8.5l2.3,4H6C5,11.5,4.4,10.2,4.4,8.7z"/>
	</g>
	<g>
		<path fill="#264A60" d="M14.1,9.1h-3.8l-2,3.5c0.5,0.2,1,0.3,1.6,0.3C12.1,13,13.9,11.3,14.1,9.1z"/>
		<path fill="#264A60" d="M15.2,9.6c-0.5,2.5-2.7,4.5-5.3,4.5c-0.5,0-0.9-0.1-1.4-0.2l1.8,3.1h4.6l2.3-4L15.2,9.6z"/>
	</g>
</g>
</svg>
