<?xml version="1.0" encoding="utf-8"?>
<!-- Generator: Adobe Illustrator 19.1.0, SVG Export Plug-In . SVG Version: 6.00 Build 0)  -->
<svg version="1.1" id="Layer_1" xmlns="http://www.w3.org/2000/svg" xmlns:xlink="http://www.w3.org/1999/xlink" x="0px" y="0px"
	 viewBox="0 0 97.1 83" enable-background="new 0 0 97.1 83" xml:space="preserve">
<g opacity="0.6">
	<path fill="#B2B2B2" stroke="#575756" stroke-miterlimit="10" d="M13.3,52.5l0-1.3l-5.1,3.1C4,56.7,4,62.7,8.1,65.2l3.9,2.3l0,4.1
		l10,5.9l3.2-1.9l3.1,1.9c6.9,4.2,15.6,4.3,22.6,0.2l42.6-24.7c4-2.3,4.1-8.2,0.1-10.6l-8.2-4.9l-4.6-2.6L41.5,57.2l-13.4-7.8
		L18,55.3L13.3,52.5z"/>
	<polygon fill="#B2B2B2" fill-opacity="0.4" stroke="#575756" stroke-linejoin="round" stroke-miterlimit="10" points="0.5,31.7 
		41.1,55.3 90.9,27.2 89.1,25.9 89.1,24.4 51.8,2.5 	"/>
	<polygon fill="#B2B2B2" fill-opacity="0.4" stroke="#575756" stroke-linejoin="round" stroke-miterlimit="10" points="33.9,16.1 
		62.9,32.9 82,22.2 52.8,5 	"/>
	<polygon fill="#B2B2B2" fill-opacity="0.4" stroke="#575756" stroke-linejoin="round" stroke-miterlimit="10" points="33.9,19.7 
		33.9,16.1 62.9,32.9 82,22.2 82,25.8 63.1,37 	"/>
	<polygon fill="#B2B2B2" fill-opacity="0.4" stroke="#575756" stroke-linejoin="round" stroke-miterlimit="10" points="90.9,27.2 
		90.9,28.9 41.5,57.2 0.5,33.5 0.5,31.7 41.1,55.3 	"/>
	<polygon opacity="0.4" fill="#B2B2B2" stroke="#575756" stroke-miterlimit="10" points="36,16 48.9,8.5 76.4,24.2 63.1,31.7 	"/>
	<polygon fill="#B2B2B2" fill-opacity="0.2" stroke="#575756" stroke-linejoin="round" stroke-miterlimit="10" points="37.5,60.1 
		22,69.3 21.9,77.4 37.6,68.1 	"/>
	<polygon fill="#B2B2B2" fill-opacity="0.4" stroke="#575756" stroke-linejoin="round" stroke-miterlimit="10" points="37.5,60.1 
		27.4,54.3 12,63.6 22,69.3 	"/>
	<polygon fill="#B2B2B2" fill-opacity="0.4" stroke="#575756" stroke-linejoin="round" stroke-miterlimit="10" points="12,63.6 
		12,71.4 21.9,77.4 22,69.3 	"/>
	<polygon fill="#B2B2B2" fill-opacity="0.4" stroke="#575756" stroke-miterlimit="10" points="13.1,65.5 13.1,69.5 14.1,70.4 14,71 
		15,71.8 15,72.3 17.6,73.8 17.8,73.3 18.7,73.9 19.1,73.2 20.7,74.1 20.7,69.9 	"/>
	<polygon opacity="0.6" fill="#B2B2B2" stroke="#575756" stroke-miterlimit="10" points="18,55.2 18,45.7 13.3,43.1 13.3,52.5 	"/>
	<polygon opacity="0.2" fill="#B2B2B2" stroke="#575756" stroke-miterlimit="10" points="18,45.7 18,55.2 28.1,49.4 19.8,44.8 	"/>
	<polygon opacity="0.4" fill="#B2B2B2" stroke="#575756" stroke-miterlimit="10" points="13.3,43.1 18,45.7 19.8,44.8 14.9,42.1 	
		"/>
	<g>
		<polygon opacity="0.4" fill="#B2B2B2" points="56.7,66.7 56.7,58.4 60.1,60.4 60.1,68.5 		"/>
		<path fill="#575756" d="M57.2,59.3l2.5,1.4v6.9l-2.5-1.3V59.3 M56.2,57.6V67l4.5,2.3v-9.2L56.2,57.6L56.2,57.6z"/>
	</g>
	<g>
		<polygon opacity="0.4" fill="#B2B2B2" points="61.1,60.4 76.1,51.7 76.1,60.2 61.1,68.4 		"/>
		<path fill="#575756" d="M75.6,52.5v7.3l-14,7.7v-6.9L75.6,52.5 M76.6,50.8l-16,9.3v9.2l16-8.8V50.8L76.6,50.8z"/>
	</g>
	<g>
		<polygon opacity="0.4" fill="#B2B2B2" points="78.7,50.3 90,44 90,52.1 78.7,58.6 		"/>
		<path fill="#575756" d="M89.5,44.8v7l-10.3,5.9v-7.2L89.5,44.8 M90.5,43.1L78.2,50v9.5l12.3-7.1V43.1L90.5,43.1z"/>
	</g>
	<g>
		<polygon opacity="0.4" fill="#B2B2B2" points="77.1,58.3 77.1,50.5 74.2,49 74.2,48.3 77.7,50.3 77.7,58.6 		"/>
		<polygon fill="#575756" points="73.7,47.4 73.7,49.3 76.6,50.8 76.6,58.6 78.2,59.5 78.2,50 73.7,47.4 		"/>
	</g>
	<g>
		<polygon opacity="0.4" fill="#B2B2B2" points="74.7,47.4 85.9,40.8 89.5,43.1 78.2,49.4 		"/>
		<path fill="#575756" d="M85.9,41.4l2.6,1.7l-10.3,5.8l-2.5-1.4L85.9,41.4 M86,40.2l-12.2,7.2l4.5,2.6l12.3-6.8L86,40.2L86,40.2z"
			/>
	</g>
	<g>
		<polygon opacity="0.4" fill="#B2B2B2" points="57.2,57.6 71.9,48.9 75.6,50.8 60.6,59.5 		"/>
		<path fill="#575756" d="M72,49.5l2.6,1.4L60.6,59l-2.5-1.4L72,49.5 M71.9,48.3l-15.8,9.2l4.5,2.6l16-9.3L71.9,48.3L71.9,48.3z"/>
	</g>
	<polygon fill="#B2B2B2" fill-opacity="0.4" stroke="#575756" stroke-miterlimit="10" points="46.8,34.2 45.2,33.3 46.8,32.4 
		48.3,33.3 	"/>
	<polygon fill="#B2B2B2" fill-opacity="0.4" stroke="#575756" stroke-miterlimit="10" points="50.8,60.4 49.3,59.5 50.8,58.6 
		52.3,59.5 	"/>
	<polygon fill="#B2B2B2" fill-opacity="0.4" stroke="#575756" stroke-miterlimit="10" points="44.8,77.4 43.2,76.5 44.7,75.6 
		46.3,76.5 	"/>
	<polygon fill="#B2B2B2" fill-opacity="0.4" stroke="#575756" stroke-miterlimit="10" points="10.4,58.5 8.9,57.6 10.4,56.7 
		12,57.6 	"/>
	<polygon fill="#B2B2B2" fill-opacity="0.4" stroke="#575756" stroke-miterlimit="10" points="46.3,60.4 44.8,59.5 46.3,58.6 
		47.8,59.5 	"/>
	<polygon fill="#B2B2B2" fill-opacity="0.4" stroke="#575756" stroke-miterlimit="10" points="35.5,42.7 33.2,41.4 35.5,40.1 
		37.8,41.4 	"/>
	<polygon fill="#B2B2B2" fill-opacity="0.4" stroke="#575756" stroke-miterlimit="10" points="38.3,40.6 34.1,38.2 38.3,35.8 
		42.5,38.2 	"/>
	<polygon fill="#B2B2B2" fill-opacity="0.4" stroke="#575756" stroke-miterlimit="10" points="34,28.8 31.7,27.5 34,26.1 36.3,27.5 
			"/>
	<g>
		<polygon opacity="0.4" fill="#B2B2B2" points="60.3,50.5 60.3,46.9 61,46.5 61,50.7 60.7,50.8 		"/>
		<polygon fill="#575756" points="61.5,45.6 59.8,46.6 59.8,50.8 60.7,51.3 61.5,51.1 61.5,45.6 		"/>
	</g>
	<g>
		<polygon opacity="0.4" fill="#B2B2B2" points="62.3,49.4 62.3,45.7 62.9,45.4 63,49.5 62.7,49.6 		"/>
		<polygon fill="#575756" points="63.4,44.5 61.8,45.5 61.8,49.7 62.6,50.2 63.5,49.9 63.4,44.5 		"/>
	</g>
	<g>
		<polygon opacity="0.4" fill="#B2B2B2" points="64.3,48.3 64.3,44.6 64.9,44.3 65,48.4 64.7,48.5 		"/>
		<polygon fill="#575756" points="65.4,43.4 63.8,44.4 63.8,48.6 64.6,49.1 65.5,48.8 65.4,43.4 		"/>
	</g>
	<g>
		<polygon opacity="0.4" fill="#B2B2B2" points="66.3,47.2 66.3,43.5 66.9,43.1 67,47.3 66.7,47.4 		"/>
		<polygon fill="#575756" points="67.4,42.2 65.8,43.2 65.8,47.4 66.6,47.9 67.5,47.7 67.4,42.2 		"/>
	</g>
	<g>
		<polygon opacity="0.4" fill="#B2B2B2" points="68.3,46 68.3,42.3 68.9,42 68.9,46.1 68.6,46.2 		"/>
		<polygon fill="#575756" points="69.4,41.1 67.8,42.1 67.8,46.3 68.6,46.8 69.4,46.5 69.4,41.1 		"/>
	</g>
	<g>
		<polygon opacity="0.4" fill="#B2B2B2" points="70.2,44.9 70.2,41.2 70.9,40.8 70.9,45 70.6,45.1 		"/>
		<polygon fill="#575756" points="71.4,40 69.7,40.9 69.7,45.2 70.5,45.7 71.4,45.4 71.4,40 		"/>
	</g>
	<g>
		<polygon opacity="0.4" fill="#B2B2B2" points="72.2,43.7 72.2,40.1 72.8,39.7 72.9,43.9 72.6,44 		"/>
		<polygon fill="#575756" points="73.3,38.8 71.7,39.8 71.7,44 72.5,44.5 73.4,44.2 73.3,38.8 		"/>
	</g>
	<g>
		<polygon opacity="0.4" fill="#B2B2B2" points="74.2,42.6 74.2,39 74.8,38.6 74.9,42.8 74.6,42.9 		"/>
		<polygon fill="#575756" points="75.3,37.7 73.7,38.7 73.7,42.9 74.5,43.4 75.4,43.2 75.3,37.7 		"/>
	</g>
	<g>
		<polygon opacity="0.4" fill="#B2B2B2" points="78.2,40.4 78.2,36.7 78.8,36.3 78.8,40.5 78.5,40.6 		"/>
		<polygon fill="#575756" points="79.3,35.4 77.7,36.4 77.7,40.6 78.5,41.1 79.3,40.9 79.3,35.4 		"/>
	</g>
	<g>
		<polygon opacity="0.4" fill="#B2B2B2" points="80.1,39.2 80.1,35.6 80.8,35.2 80.8,39.4 80.5,39.4 		"/>
		<polygon fill="#575756" points="81.3,34.3 79.6,35.3 79.6,39.5 80.4,40 81.3,39.7 81.3,34.3 		"/>
	</g>
	<g>
		<polygon opacity="0.4" fill="#B2B2B2" points="82.1,38.1 82.1,34.4 82.7,34.1 82.8,38.2 82.5,38.3 		"/>
		<polygon fill="#575756" points="83.2,33.2 81.6,34.2 81.6,38.4 82.4,38.9 83.3,38.6 83.2,33.2 		"/>
	</g>
	<g>
		<polygon opacity="0.4" fill="#B2B2B2" points="84.1,36.9 84.1,33.2 84.7,32.9 84.8,37 84.5,37.1 		"/>
		<polygon fill="#575756" points="85.2,32 83.6,33 83.6,37.2 84.4,37.7 85.3,37.4 85.2,32 		"/>
	</g>
	<g>
		<polygon opacity="0.4" fill="#B2B2B2" points="86.1,35.8 86.1,32.1 86.7,31.8 86.7,35.9 86.5,36 		"/>
		<polygon fill="#575756" points="87.2,30.9 85.6,31.9 85.6,36.1 86.4,36.6 87.3,36.3 87.2,30.9 		"/>
	</g>
	<g>
		<polygon opacity="0.4" fill="#B2B2B2" points="88.1,34.7 88.1,31 88.7,30.6 88.7,34.8 88.4,34.9 		"/>
		<polygon fill="#575756" points="89.2,29.8 87.6,30.7 87.6,34.9 88.4,35.4 89.2,35.2 89.2,29.8 		"/>
	</g>
	<g>
		<path fill="#B2B2B2" stroke="#575756" stroke-miterlimit="10" d="M21.8,29.7c0,0-0.1,0-0.1,0l-0.3-0.2c0,0,0-0.1,0-0.1l2-1.2
			c0,0,0.1,0,0.1,0l0.3,0.2c0,0,0,0.1,0,0.1L21.8,29.7z"/>
		<path fill="#B2B2B2" stroke="#575756" stroke-miterlimit="10" d="M20.1,28.7c0,0-0.1,0-0.1,0l-0.3-0.2c0,0,0-0.1,0-0.1l2-1.2
			c0,0,0.1,0,0.1,0l0.3,0.2c0,0,0,0.1,0,0.1L20.1,28.7z"/>
		<path fill="#B2B2B2" stroke="#575756" stroke-miterlimit="10" d="M23.6,30.7c0,0-0.1,0-0.1,0l-0.3-0.2c0,0,0-0.1,0-0.1l2-1.2
			c0,0,0.1,0,0.1,0l0.3,0.2c0,0,0,0.1,0,0.1L23.6,30.7z"/>
		<path fill="#B2B2B2" stroke="#575756" stroke-miterlimit="10" d="M15.6,35.3c0,0-0.1,0-0.1,0l-0.3-0.2c0,0,0-0.1,0-0.1l2-1.2
			c0,0,0.1,0,0.1,0l0.3,0.2c0,0,0,0.1,0,0.1L15.6,35.3z"/>
		<path fill="#B2B2B2" stroke="#575756" stroke-miterlimit="10" d="M12.2,33.3c0,0-0.1,0-0.1,0l-0.3-0.2c0,0,0-0.1,0-0.1l2-1.2
			c0,0,0.1,0,0.1,0l0.3,0.2c0,0,0,0.1,0,0.1L12.2,33.3z"/>
		<path fill="#B2B2B2" stroke="#575756" stroke-miterlimit="10" d="M13.9,34.3c0,0-0.1,0-0.1,0l-0.3-0.2c0,0,0-0.1,0-0.1l2-1.2
			c0,0,0.1,0,0.1,0l0.3,0.2c0,0,0,0.1,0,0.1L13.9,34.3z"/>
		<path fill="#B2B2B2" stroke="#575756" stroke-miterlimit="10" d="M15.6,29.8c0,0-0.1,0-0.1,0l-2-1.2c0,0,0-0.1,0-0.1l0.3-0.2
			c0,0,0.1,0,0.1,0l2,1.2c0,0,0,0.1,0,0.1L15.6,29.8z"/>
		<path fill="#B2B2B2" stroke="#575756" stroke-miterlimit="10" d="M13.9,30.8c0,0-0.1,0-0.1,0l-2-1.2c0,0,0-0.1,0-0.1l0.3-0.2
			c0,0,0.1,0,0.1,0l2,1.2c0,0,0,0.1,0,0.1L13.9,30.8z"/>
		<path fill="#B2B2B2" stroke="#575756" stroke-miterlimit="10" d="M17.7,28.5C17.8,28.5,17.8,28.6,17.7,28.5l-0.3,0.3
			c0,0-0.1,0-0.1,0l-2-1.2c0,0,0-0.1,0-0.1l0.3-0.2c0,0,0.1,0,0.1,0L17.7,28.5z"/>
		<path id="Body_5_" fill="#B2B2B2" stroke="#575756" stroke-miterlimit="10" d="M18.6,27.7l-6.3,3.6l6.2,3.6l6.3-3.6L18.6,27.7
			L18.6,27.7z M17.3,32c-0.7-0.4-0.7-1,0-1.4s1.8-0.4,2.5,0c0.7,0.4,0.7,1,0,1.4C19.1,32.4,18,32.4,17.3,32z"/>
		<path fill="#B2B2B2" stroke="#575756" stroke-miterlimit="10" d="M23.4,34.2c0,0-0.1,0-0.1,0l-2-1.2c0,0,0-0.1,0-0.1l0.3-0.2
			c0,0,0.1,0,0.1,0l2,1.2c0,0,0,0.1,0,0.1L23.4,34.2L23.4,34.2z"/>
		<path fill="#B2B2B2" stroke="#575756" stroke-miterlimit="10" d="M25.1,33.3c0,0-0.1,0-0.1,0l-2-1.2c0,0,0-0.1,0-0.1l0.3-0.2
			c0,0,0.1,0,0.1,0l2,1.2c0,0,0,0.1,0,0.1L25.1,33.3L25.1,33.3z"/>
		<path fill="#B2B2B2" stroke="#575756" stroke-miterlimit="10" d="M19.6,34C19.6,34,19.6,34,19.6,34l0.3-0.3c0,0,0.1,0,0.1,0l2,1.2
			c0,0,0,0.1,0,0.1l-0.3,0.2c0,0-0.1,0-0.1,0L19.6,34z"/>
	</g>
</g>
</svg>
