<?xml version="1.0" encoding="utf-8"?>
<!-- Generator: Adobe Illustrator 19.1.0, SVG Export Plug-In . SVG Version: 6.00 Build 0)  -->
<!DOCTYPE svg PUBLIC "-//W3C//DTD SVG 1.1//EN" "http://www.w3.org/Graphics/SVG/1.1/DTD/svg11.dtd">
<svg version="1.1" id="Layer_1" xmlns="http://www.w3.org/2000/svg" xmlns:xlink="http://www.w3.org/1999/xlink" x="0px" y="0px"
	 width="862.1px" height="547.9px" viewBox="0 0 862.1 547.9" enable-background="new 0 0 862.1 547.9" xml:space="preserve">
<symbol  id="iot-man" viewBox="-34 -35.1 68 70.1">
	<path fill="#FFFFFF" d="M32.7-9H21v6h11.5c1,0,1.5,0.6,1.5,1.6v2.1c0,1-0.5,1.3-1.5,1.3H21v6h11.5c1,0,1.5,1,1.5,2v2.1
		c0,1-0.5,1.9-1.5,1.9H21v7h-7v12.6c0,1-0.5,1.4-1.5,1.4h-2.1c-1,0-1.5-0.5-1.5-1.4V21H3v12.4c0,1-1.1,1.6-2,1.6h-2.1
		c-1,0-1.9-0.6-1.9-1.6V21h-6v12.4c0,1-0.5,1.6-1.5,1.6h-2.1c-1,0-1.5-0.6-1.5-1.6V21h-7v-7h-11.5c-1,0-1.5-0.5-1.5-1.5v-2.1
		c0-1,0.5-1.5,1.5-1.5H-21V2h-11.7c-1,0-1.3-0.4-1.3-1.3v-2.1c0-1,0.4-1.6,1.3-1.6H-21v-6h-11.7c-1,0-1.3-0.8-1.3-1.8v-2.1
		c0-1,0.4-2.2,1.3-2.2H-21v-6h7v-12.6c0-0.1-0.1-0.2-0.1-0.3l1.4-1.3c0.1,0,0.1,0.1,0.2,0.1h2.1c1,0,1.5,0.5,1.5,1.4V-21h6v-12.6
		c0-1,0.9-1.4,1.9-1.4H1c1,0,2,0.5,2,1.4V-21h6v-12.4c0-1,0.5-1.6,1.5-1.6h2.1c1,0,1.5,0.6,1.5,1.6V-21h7v7h11.7
		c1,0,1.3,0.6,1.3,1.6v2.1C34-9.3,33.6-9,32.7-9z M-0.1-8.7c-4.6,0-8.3,3.7-8.3,8.3s3.7,8.3,8.3,8.3s8.3-3.7,8.3-8.3
		S4.5-8.7-0.1-8.7z"/>
	<polygon display="none" fill="none" points="-34,35 34,35 34,-35 -34,-35 	"/>
</symbol>
<g>
	<defs>
		<rect id="SVGID_47_" x="0" width="862.1" height="547.9"/>
	</defs>
	<clipPath id="SVGID_2_">
		<use xlink:href="#SVGID_47_"  overflow="visible"/>
	</clipPath>
	<g opacity="0.4" clip-path="url(#SVGID_2_)">
		<g>
			<path fill="#3A0B2E" d="M335.6,293.8c11.3,0,20.5-9.2,20.5-20.5h-41C315.1,284.6,324.3,293.8,335.6,293.8z"/>
		</g>
		<g>
			<path fill="#3A0B2E" d="M417.9,186.9c0,11.7,9.5,21.2,21.2,21.2v-21.2H417.9z"/>
			<path fill="#3A0B2E" d="M439.1,165.7v21.2h21.2C460.3,175.1,450.8,165.7,439.1,165.7z"/>
		</g>
		<g>
			<polygon fill="#3A0B2E" points="289.1,122.8 234.7,122.8 234.7,-29.7 236.7,-29.7 236.7,120.8 287.1,120.8 287.1,-29.8 
				289.1,-29.8 			"/>
		</g>
		<g>
			<rect x="261.9" y="75.1" fill="#3A0B2E" width="26.2" height="2"/>
		</g>
		<g>
			<rect x="275" y="51.4" fill="#3A0B2E" width="13.1" height="2"/>
		</g>
		<g>
			<rect x="261.9" y="29.4" fill="#3A0B2E" width="26.2" height="2"/>
		</g>
		<g>
			<rect x="275" y="5.7" fill="#3A0B2E" width="13.1" height="2"/>
		</g>
		<g>
			<path fill="#3A0B2E" d="M58.5,213.2c-5.5,0-10-4.5-10-10s4.5-10,10-10s10,4.5,10,10S64,213.2,58.5,213.2z M58.5,195.1
				c-4.4,0-8,3.6-8,8s3.6,8,8,8c4.4,0,8-3.6,8-8S62.9,195.1,58.5,195.1z"/>
		</g>
		<g>
			<path fill="#3A0B2E" d="M58.5,186.6c-5.5,0-10-4.5-10-10s4.5-10,10-10s10,4.5,10,10S64,186.6,58.5,186.6z M58.5,168.6
				c-4.4,0-8,3.6-8,8c0,4.4,3.6,8,8,8c4.4,0,8-3.6,8-8C66.5,172.2,62.9,168.6,58.5,168.6z"/>
		</g>
		<g>
			<circle fill="#3A0B2E" cx="58.5" cy="150.1" r="9"/>
			<path fill="#3A0B2E" d="M58.5,160.1c-5.5,0-10-4.5-10-10s4.5-10,10-10s10,4.5,10,10S64,160.1,58.5,160.1z M58.5,142.1
				c-4.4,0-8,3.6-8,8s3.6,8,8,8c4.4,0,8-3.6,8-8S62.9,142.1,58.5,142.1z"/>
		</g>
		<g>
			<polygon fill="#3A0B2E" points="-0.6,107.6 -0.6,105.6 77.9,105.6 115.5,83.9 77.9,62.2 -0.5,62.2 -0.5,60.2 78.5,60.2 
				119.5,83.9 78.4,107.6 			"/>
		</g>
		<g>
			<polygon fill="#3A0B2E" points="77.3,107.1 63.9,83.9 77.3,60.7 79.1,61.7 66.2,83.9 79,106.1 			"/>
		</g>
		<g>
			<polygon fill="#3A0B2E" points="90.9,67.8 90.9,99.3 117.5,83.9 			"/>
		</g>
		<g>
			<rect x="-0.6" y="82.9" fill="#3A0B2E" width="65.6" height="2"/>
		</g>
		<g>
			<polygon fill="#3A0B2E" points="813.1,395.5 681.9,395.5 681.4,395.4 602.8,350.1 591,350.1 591,380.7 589,380.7 589,349.1 
				590,348.1 603.1,348.1 603.6,348.2 682.2,393.5 812.8,393.5 834.9,380.4 681.9,380.4 681.4,380.2 602.6,334.8 602.6,333.1 
				681.4,287.6 681.9,287.4 806.8,287.4 806.8,289.4 682.2,289.4 605.1,333.9 682.2,378.4 838.6,378.4 839.1,380.2 813.6,395.4 			
				"/>
		</g>
		<g>
			<polygon fill="#3A0B2E" points="682.6,379.2 681.1,377.9 700.2,355.9 680.8,334.5 680.8,333.5 700.2,311.2 681.1,289.1 
				682.6,287.8 702.9,311.2 683.1,334 702.9,355.8 			"/>
		</g>
		<g>
			<polygon fill="#3A0B2E" points="633.5,351.9 633.5,316 603.1,333.5 			"/>
		</g>
		<g>
			<rect x="701.6" y="310.2" fill="#3A0B2E" width="165.9" height="2"/>
		</g>
		<g>
			<rect x="701.6" y="354.9" fill="#3A0B2E" width="91.9" height="2"/>
		</g>
		<g>
			<polygon fill="#3A0B2E" points="-0.5,47 -0.5,45 51.7,45 63,38.5 50.9,31.5 50.9,0 63,-7 51.7,-13.6 -0.6,-13.6 -0.6,-15.6 
				52.2,-15.6 67.1,-7 52.9,1.1 52.9,30.3 67.1,38.5 52.2,47 			"/>
		</g>
		<g>
			<polygon fill="#3A0B2E" points="110,51.3 108,51.3 108,47 77.2,47 77.2,31.4 64.1,23.9 64.1,7.5 77.2,0 77.2,-15.6 104.4,-15.6 
				104.4,-13.6 79.2,-13.6 79.2,1.2 66.1,8.7 66.1,22.7 79.2,30.3 79.2,45 110,45 			"/>
		</g>
		<g>
			<path fill="#3A0B2E" d="M85.8,222.2H31.3v-92.9h54.5V222.2z M33.3,220.2h50.5v-88.9H33.3V220.2z"/>
		</g>
		<g>
			<path fill="#3A0B2E" d="M531.3,156.1h-28c-14.7,0-26.7-12-26.7-26.7c0-14.7,12-26.7,26.7-26.7h27.2v2h-27.2
				c-13.6,0-24.7,11.1-24.7,24.7s11.1,24.7,24.7,24.7h28V156.1z"/>
		</g>
		<g>
			<path fill="#3A0B2E" d="M516.9,156.1c-14.7,0-26.7-12-26.7-26.7c0-14.7,12-26.7,26.7-26.7v2c-13.6,0-24.7,11.1-24.7,24.7
				s11.1,24.7,24.7,24.7V156.1z"/>
		</g>
		<g>
			<path fill="#3A0B2E" d="M530.5,156.1c-14.7,0-26.7-12-26.7-26.7c0-14.7,12-26.7,26.7-26.7c14.7,0,26.7,12,26.7,26.7
				C557.2,144.1,545.2,156.1,530.5,156.1z M530.5,104.7c-13.6,0-24.7,11.1-24.7,24.7s11.1,24.7,24.7,24.7s24.7-11.1,24.7-24.7
				S544.1,104.7,530.5,104.7z"/>
		</g>
		<g>
			<g>
				<path fill="#3A0B2E" d="M186,114.3c-3-3-6.3-5.5-10-7.4l-0.5-0.3l0-0.6l0-15.9l-6.6-6.6l-0.7-0.7l0.7-0.7l6.6-6.6v-89L155.9-33
					l-19.6,19.6l0,119.4v0.6l-0.5,0.3c-3.7,2-7.1,4.5-10,7.4c-8,8-12.5,18.7-12.5,30.1s4.4,22.1,12.5,30.1s18.7,12.5,30.1,12.5
					c11.4,0,22.1-4.4,30.1-12.5c8-8,12.5-18.7,12.5-30.1S194.1,122.4,186,114.3z M184,172.6c-7.5,7.5-17.5,11.6-28.1,11.6
					c-10.6,0-20.6-4.1-28.1-11.6c-7.5-7.5-11.6-17.5-11.6-28.1c0-10.6,4.1-20.6,11.6-28.1c2.8-2.8,5.9-5.1,9.4-6.9l2-1.1l0-2.3
					l0-117.9v-0.4l0.3-0.3l15.7-15.7l0.7-0.7l0.7,0.7l15.7,15.7l0.3,0.3v0.4l0,85.8v0.4l-0.3,0.3l-5.4,5.4l-2.7,2.7l2.7,2.7l5.4,5.4
					l0.3,0.3l0,0.4l0,14.4l0,2.3l2,1.1c3.5,1.8,6.6,4.2,9.4,6.9C199.5,131.8,199.5,157.1,184,172.6z"/>
			</g>
			<g>
				<path fill="#3A0B2E" d="M162,152c-1.6-1.6-3.8-2.5-6.1-2.5s-4.5,0.9-6.1,2.5c-1.6,1.6-2.5,3.8-2.5,6.1c0,2.3,0.9,4.5,2.5,6.1
					c1.6,1.6,3.8,2.5,6.1,2.5s4.5-0.9,6.1-2.5c1.6-1.6,2.5-3.8,2.5-6.1C164.6,155.8,163.7,153.7,162,152z"/>
			</g>
			<g>
				<rect x="154.5" y="-6" fill="#3A0B2E" width="2.8" height="74.1"/>
			</g>
		</g>
		<g>
			<polygon fill="#3A0B2E" points="262.9,357.7 10.9,357.7 10.9,355.7 260.9,355.7 260.9,251.8 11.9,251.8 11.9,249.8 262.9,249.8 
							"/>
		</g>
		<g>
			<path fill="#3A0B2E" d="M162.7,274.3h-128V260h128V274.3z M36.7,272.3h124V262h-124V272.3z"/>
		</g>
		<g>
			<path fill="#3A0B2E" d="M184.2,274.3H169V260h15.1V274.3z M171,272.3h11.1V262H171V272.3z"/>
		</g>
		<g>
			<path fill="#3A0B2E" d="M18.1,292.8H3v-14.3h15.1V292.8z M5,290.8h11.1v-10.3H5V290.8z"/>
		</g>
		<g>
			<path fill="#3A0B2E" d="M97.4,292.8H82.3v-14.3h15.1V292.8z M84.3,290.8h11.1v-10.3H84.3V290.8z"/>
		</g>
		<g>
			<path fill="#3A0B2E" d="M38,292.8H22.8v-14.3H38V292.8z M24.8,290.8H36v-10.3H24.8V290.8z"/>
		</g>
		<g>
			<path fill="#3A0B2E" d="M57.8,292.8H42.6v-14.3h15.1V292.8z M44.6,290.8h11.1v-10.3H44.6V290.8z"/>
		</g>
		<g>
			<path fill="#3A0B2E" d="M77.6,292.8H62.5v-14.3h15.1V292.8z M64.5,290.8h11.1v-10.3H64.5V290.8z"/>
		</g>
		<g>
			<path fill="#3A0B2E" d="M117.2,292.8h-15.1v-14.3h15.1V292.8z M104.1,290.8h11.1v-10.3h-11.1V290.8z"/>
		</g>
		<g>
			<path fill="#3A0B2E" d="M196.5,292.8h-15.1v-14.3h15.1V292.8z M183.4,290.8h11.1v-10.3h-11.1V290.8z"/>
		</g>
		<g>
			<path fill="#3A0B2E" d="M137.1,292.8h-15.1v-14.3h15.1V292.8z M123.9,290.8h11.1v-10.3h-11.1V290.8z"/>
		</g>
		<g>
			<path fill="#3A0B2E" d="M156.9,292.8h-15.1v-14.3h15.1V292.8z M143.7,290.8h11.1v-10.3h-11.1V290.8z"/>
		</g>
		<g>
			<path fill="#3A0B2E" d="M176.7,292.8h-15.1v-14.3h15.1V292.8z M163.6,290.8h11.1v-10.3h-11.1V290.8z"/>
		</g>
		<g>
			<path fill="#3A0B2E" d="M18.1,328.9H3v-14.3h15.1V328.9z M5,326.9h11.1v-10.3H5V326.9z"/>
		</g>
		<g>
			<path fill="#3A0B2E" d="M97.4,328.9H82.3v-14.3h15.1V328.9z M84.3,326.9h11.1v-10.3H84.3V326.9z"/>
		</g>
		<g>
			<path fill="#3A0B2E" d="M38,328.9H22.8v-14.3H38V328.9z M24.8,326.9H36v-10.3H24.8V326.9z"/>
		</g>
		<g>
			<path fill="#3A0B2E" d="M57.8,328.9H42.6v-14.3h15.1V328.9z M44.6,326.9h11.1v-10.3H44.6V326.9z"/>
		</g>
		<g>
			<path fill="#3A0B2E" d="M77.6,328.9H62.5v-14.3h15.1V328.9z M64.5,326.9h11.1v-10.3H64.5V326.9z"/>
		</g>
		<g>
			<path fill="#3A0B2E" d="M117.2,328.9h-15.1v-14.3h15.1V328.9z M104.1,326.9h11.1v-10.3h-11.1V326.9z"/>
		</g>
		<g>
			<path fill="#3A0B2E" d="M196.5,328.9h-15.1v-14.3h15.1V328.9z M183.4,326.9h11.1v-10.3h-11.1V326.9z"/>
		</g>
		<g>
			<path fill="#3A0B2E" d="M217,328.9h-15.1v-14.3H217V328.9z M203.9,326.9H215v-10.3h-11.1V326.9z"/>
		</g>
		<g>
			<path fill="#3A0B2E" d="M137.1,328.9h-15.1v-14.3h15.1V328.9z M123.9,326.9h11.1v-10.3h-11.1V326.9z"/>
		</g>
		<g>
			<path fill="#3A0B2E" d="M156.9,328.9h-15.1v-14.3h15.1V328.9z M143.7,326.9h11.1v-10.3h-11.1V326.9z"/>
		</g>
		<g>
			<path fill="#3A0B2E" d="M176.7,328.9h-15.1v-14.3h15.1V328.9z M163.6,326.9h11.1v-10.3h-11.1V326.9z"/>
		</g>
		<g>
			<path fill="#3A0B2E" d="M28.1,310.8H13v-14.3h15.1V310.8z M15,308.8h11.1v-10.3H15V308.8z"/>
		</g>
		<g>
			<path fill="#3A0B2E" d="M107.4,310.8H92.3v-14.3h15.1V310.8z M94.3,308.8h11.1v-10.3H94.3V308.8z"/>
		</g>
		<g>
			<path fill="#3A0B2E" d="M48,310.8H32.8v-14.3H48V310.8z M34.8,308.8H46v-10.3H34.8V308.8z"/>
		</g>
		<g>
			<path fill="#3A0B2E" d="M67.8,310.8H52.6v-14.3h15.1V310.8z M54.6,308.8h11.1v-10.3H54.6V308.8z"/>
		</g>
		<g>
			<path fill="#3A0B2E" d="M87.6,310.8H72.5v-14.3h15.1V310.8z M74.5,308.8h11.1v-10.3H74.5V308.8z"/>
		</g>
		<g>
			<path fill="#3A0B2E" d="M127.2,310.8h-15.1v-14.3h15.1V310.8z M114.1,308.8h11.1v-10.3h-11.1V308.8z"/>
		</g>
		<g>
			<path fill="#3A0B2E" d="M206.5,310.8h-15.1v-14.3h15.1V310.8z M193.4,308.8h11.1v-10.3h-11.1V308.8z"/>
		</g>
		<g>
			<path fill="#3A0B2E" d="M147.1,310.8h-15.1v-14.3h15.1V310.8z M133.9,308.8h11.1v-10.3h-11.1V308.8z"/>
		</g>
		<g>
			<path fill="#3A0B2E" d="M166.9,310.8h-15.1v-14.3h15.1V310.8z M153.7,308.8h11.1v-10.3h-11.1V308.8z"/>
		</g>
		<g>
			<path fill="#3A0B2E" d="M186.7,310.8h-15.1v-14.3h15.1V310.8z M173.6,308.8h11.1v-10.3h-11.1V308.8z"/>
		</g>
		<g>
			<path fill="#3A0B2E" d="M28.1,347.2H13v-14.3h15.1V347.2z M15,345.2h11.1v-10.3H15V345.2z"/>
		</g>
		<g>
			<path fill="#3A0B2E" d="M107.4,347.2H92.3v-14.3h15.1V347.2z M94.3,345.2h11.1v-10.3H94.3V345.2z"/>
		</g>
		<g>
			<path fill="#3A0B2E" d="M48,347.2H32.8v-14.3H48V347.2z M34.8,345.2H46v-10.3H34.8V345.2z"/>
		</g>
		<g>
			<path fill="#3A0B2E" d="M67.8,347.2H52.6v-14.3h15.1V347.2z M54.6,345.2h11.1v-10.3H54.6V345.2z"/>
		</g>
		<g>
			<path fill="#3A0B2E" d="M87.6,347.2H72.5v-14.3h15.1V347.2z M74.5,345.2h11.1v-10.3H74.5V345.2z"/>
		</g>
		<g>
			<path fill="#3A0B2E" d="M127.2,347.2h-15.1v-14.3h15.1V347.2z M114.1,345.2h11.1v-10.3h-11.1V345.2z"/>
		</g>
		<g>
			<path fill="#3A0B2E" d="M206.5,347.2h-15.1v-14.3h15.1V347.2z M193.4,345.2h11.1v-10.3h-11.1V345.2z"/>
		</g>
		<g>
			<path fill="#3A0B2E" d="M147.1,347.2h-15.1v-14.3h15.1V347.2z M133.9,345.2h11.1v-10.3h-11.1V345.2z"/>
		</g>
		<g>
			<path fill="#3A0B2E" d="M166.9,347.2h-15.1v-14.3h15.1V347.2z M153.7,345.2h11.1v-10.3h-11.1V345.2z"/>
		</g>
		<g>
			<path fill="#3A0B2E" d="M186.7,347.2h-15.1v-14.3h15.1V347.2z M173.6,345.2h11.1v-10.3h-11.1V345.2z"/>
		</g>
		<g>
			<path fill="#3A0B2E" d="M246.6,347.2h-15.1v-14.3h15.1V347.2z M233.4,345.2h11.1v-10.3h-11.1V345.2z"/>
		</g>
		<g>
			<path fill="#3A0B2E" d="M226.7,347.2h-15.1v-14.3h15.1V347.2z M213.6,345.2h11.1v-10.3h-11.1V345.2z"/>
		</g>
		<g>
			<path fill="#3A0B2E" d="M203.9,274.3h-15.1V260h15.1V274.3z M190.7,272.3h11.1V262h-11.1V272.3z"/>
		</g>
		<g>
			<path fill="#3A0B2E" d="M223.6,274.3h-15.1V260h15.1V274.3z M210.4,272.3h11.1V262h-11.1V272.3z"/>
		</g>
		<g>
			<path fill="#3A0B2E" d="M246.6,274.3h-18.5V260h18.5V274.3z M230.1,272.3h14.5V262h-14.5V272.3z"/>
		</g>
		<g>
			<path fill="#3A0B2E" d="M246.6,328.9h-25v-14.3h25V328.9z M223.6,326.9h21v-10.3h-21V326.9z"/>
		</g>
		<g>
			<path fill="#3A0B2E" d="M246.6,310.9h-35v-14.3h35V310.9z M213.6,308.9h31v-10.3h-31V308.9z"/>
		</g>
		<g>
			<path fill="#3A0B2E" d="M246.6,292.8h-44.7v-14.3h44.7V292.8z M203.8,290.8h40.7v-10.3h-40.7V290.8z"/>
		</g>
		<g>
			<path fill="#3A0B2E" d="M26.7,274.3H5V260h21.7V274.3z M7,272.3h17.7V262H7V272.3z"/>
		</g>
		<g>
			<path fill="#3A0B2E" d="M489.8,93.5h-57.1c-31.4,0-56.9-25.5-56.9-56.9s25.5-56.9,56.9-56.9h57.1c31.4,0,56.9,25.5,56.9,56.9
				S521.2,93.5,489.8,93.5z M432.7-18.2c-30.3,0-54.9,24.6-54.9,54.9s24.6,54.9,54.9,54.9h57.1c30.3,0,54.9-24.6,54.9-54.9
				s-24.6-54.9-54.9-54.9H432.7z"/>
		</g>
		<g>
			<rect x="438.1" y="-16.9" fill="#3A0B2E" width="2" height="108.4"/>
		</g>
		<g>
			<polygon fill="#3A0B2E" points="439.1,39.5 300.3,39.5 300.3,7.1 352.8,7.1 352.8,-25.9 354.8,-25.9 354.8,9.1 302.3,9.1 
				302.3,37.5 439.1,37.5 			"/>
		</g>
		<g>
			<g>
				<path fill="#3A0B2E" d="M525.4,295.6h-54.5v-54.5h54.5V295.6z M472.9,293.6h50.5v-50.5h-50.5V293.6z"/>
			</g>
			<g>
				<circle fill="#3A0B2E" cx="482.6" cy="252.9" r="3.4"/>
			</g>
			<g>
				<circle fill="#3A0B2E" cx="513.6" cy="252.9" r="3.4"/>
			</g>
			<g>
				<circle fill="#3A0B2E" cx="482.6" cy="283.4" r="3.4"/>
			</g>
			<g>
				<circle fill="#3A0B2E" cx="513.6" cy="283.4" r="3.4"/>
			</g>
		</g>
		<g>
			<g>
				<path fill="#3A0B2E" d="M636.9,563h-71v-71h71V563z M567.9,561h67v-67h-67V561z"/>
			</g>
			<g>
				<circle fill="#3A0B2E" cx="577.7" cy="503.7" r="3.4"/>
			</g>
			<g>
				<circle fill="#3A0B2E" cx="626.2" cy="503.7" r="3.4"/>
			</g>
		</g>
		<g>
			<path fill="#3A0B2E" d="M354.8,102.4h-54.5V48h54.5V102.4z M302.3,100.4h50.5V50h-50.5V100.4z"/>
		</g>
		<g>
			<circle fill="#3A0B2E" cx="312" cy="59.7" r="3.4"/>
		</g>
		<g>
			<circle fill="#3A0B2E" cx="343" cy="59.7" r="3.4"/>
		</g>
		<g>
			<circle fill="#3A0B2E" cx="312" cy="90.2" r="3.4"/>
		</g>
		<g>
			<circle fill="#3A0B2E" cx="343" cy="90.2" r="3.4"/>
		</g>
		<g>
			<path fill="#3A0B2E" d="M112,427.4H7.6V368H112V427.4z M9.6,425.4H110V370H9.6V425.4z"/>
		</g>
		<g>
			<circle fill="#3A0B2E" cx="17.4" cy="377.2" r="3.4"/>
		</g>
		<g>
			<circle fill="#3A0B2E" cx="98.8" cy="377.2" r="3.4"/>
		</g>
		<g>
			<circle fill="#3A0B2E" cx="17.4" cy="418.2" r="3.4"/>
		</g>
		<g>
			<circle fill="#3A0B2E" cx="98.8" cy="418.2" r="3.4"/>
		</g>
		<g>
			<path fill="#3A0B2E" d="M210.4,497.3H9.9v-30h200.5V497.3z M11.9,495.3h196.5v-26H11.9V495.3z"/>
		</g>
		<g>
			<rect x="69" y="469.3" fill="#3A0B2E" width="2" height="26.6"/>
		</g>
		<g>
			<rect x="198" y="469.3" fill="#3A0B2E" width="2" height="26.6"/>
		</g>
		<g>
			<rect x="209.4" y="475.5" fill="#3A0B2E" width="29.7" height="12.8"/>
			<path fill="#3A0B2E" d="M240.1,489.4h-31.7v-14.8h31.7V489.4z M210.4,487.4h27.7v-10.8h-27.7V487.4z"/>
		</g>
		<g>
			<rect x="215" y="465.9" fill="#3A0B2E" width="2" height="32"/>
		</g>
		<g>
			<rect x="222.9" y="469.7" fill="#3A0B2E" width="2" height="24.4"/>
		</g>
		<g>
			<rect x="230.9" y="471.5" fill="#3A0B2E" width="2" height="20.8"/>
		</g>
		<g>
			<rect x="239.5" y="480.9" fill="#3A0B2E" width="9.3" height="2"/>
		</g>
		<g>
			<polygon fill="#3A0B2E" points="231,448.6 86.6,448.6 86.6,427.3 88.6,427.3 88.6,446.6 231,446.6 			"/>
		</g>
		<g>
			<polygon fill="#3A0B2E" points="71,443.4 9.5,443.4 9.5,441.4 69,441.4 69,426.4 71,426.4 			"/>
		</g>
		<g>
			<rect x="7.8" y="454.2" fill="#3A0B2E" width="61.5" height="2"/>
		</g>
		<g>
			<polygon fill="#3A0B2E" points="440.2,580.2 438.2,580.2 438.2,483.6 405.8,451.3 302.3,451.3 302.3,576 300.3,576 300.3,449.3 
				406.7,449.3 440.2,482.8 			"/>
		</g>
		<g>
			<polygon fill="#3A0B2E" points="439.2,486.4 405.3,486.4 405.3,451.8 407.3,451.8 407.3,484.4 439.2,484.4 			"/>
		</g>
		<g>
			<rect x="323.9" y="466.8" fill="#3A0B2E" width="61" height="2"/>
		</g>
		<g>
			<rect x="323.9" y="485.3" fill="#3A0B2E" width="61" height="2"/>
		</g>
		<g>
			<rect x="323.9" y="503.1" fill="#3A0B2E" width="94.3" height="2"/>
		</g>
		<g>
			<rect x="323.9" y="521.1" fill="#3A0B2E" width="94.3" height="2"/>
		</g>
		<g>
			<path fill="#3A0B2E" d="M577.9,468.8H484v-33.7h93.9V468.8z M486,466.8h89.9v-29.7H486V466.8z"/>
		</g>
		<g>
			<polygon fill="#3A0B2E" points="511.2,576.4 509.2,576.4 509.2,482.8 485,482.8 485,468.6 487,468.6 487,480.8 511.2,480.8 			
				"/>
		</g>
		<g>
			<polygon fill="#3A0B2E" points="551.6,576.4 549.6,576.4 549.6,480.8 573.8,480.8 573.8,468.6 575.8,468.6 575.8,482.8 
				551.6,482.8 			"/>
		</g>
		<g>
			<path fill="#3A0B2E" d="M531.1,552.1c-6.1,0-11-4.9-11-11s4.9-11,11-11s11,4.9,11,11S537.2,552.1,531.1,552.1z M531.1,532
				c-5,0-9,4.1-9,9c0,5,4.1,9,9,9c5,0,9-4.1,9-9C540.2,536.1,536.1,532,531.1,532z"/>
		</g>
		<g>
			<polygon fill="#3A0B2E" points="510.7,436.1 508.7,436.1 508.7,351.3 489.6,351.3 489.6,434.5 487.6,434.5 487.6,349.3 
				510.7,349.3 			"/>
		</g>
		<g>
			<polygon fill="#3A0B2E" points="500.1,435.3 498.1,435.3 498.1,364.9 507.2,355.1 507.2,350.3 509.2,350.3 509.2,355.9 
				500.1,365.7 			"/>
		</g>
		<g>
			<polygon fill="#3A0B2E" points="500.1,435.3 498.1,435.3 498.1,365.7 489,355.9 489,350.3 491,350.3 491,355.1 500.1,364.9 			
				"/>
		</g>
		<g>
			<polygon fill="#3A0B2E" points="499.2,363.1 508.2,354.6 505.9,350.9 491.4,350.3 490,354.4 			"/>
		</g>
		<g>
			<polygon fill="#3A0B2E" points="531.9,436.1 529.9,436.1 529.9,351.3 510.7,351.3 510.7,434.5 508.7,434.5 508.7,349.3 
				531.9,349.3 			"/>
		</g>
		<g>
			<polygon fill="#3A0B2E" points="521.3,435.3 519.3,435.3 519.3,364.9 528.4,355.1 528.4,350.3 530.4,350.3 530.4,355.9 
				521.3,365.7 			"/>
		</g>
		<g>
			<polygon fill="#3A0B2E" points="521.3,435.3 519.3,435.3 519.3,365.7 510.2,355.9 510.2,350.3 512.2,350.3 512.2,355.1 
				521.3,364.9 			"/>
		</g>
		<g>
			<polygon fill="#3A0B2E" points="520.4,363.1 529.4,354.6 527.1,350.9 512.5,350.3 511.2,354.4 			"/>
		</g>
		<g>
			<polygon fill="#3A0B2E" points="553,436.1 551,436.1 551,351.3 531.9,351.3 531.9,434.5 529.9,434.5 529.9,349.3 553,349.3 			
				"/>
		</g>
		<g>
			<polygon fill="#3A0B2E" points="542.4,435.3 540.4,435.3 540.4,364.9 549.5,355.1 549.5,350.3 551.5,350.3 551.5,355.9 
				542.4,365.7 			"/>
		</g>
		<g>
			<polygon fill="#3A0B2E" points="542.4,435.3 540.4,435.3 540.4,365.7 531.3,355.9 531.3,350.3 533.3,350.3 533.3,355.1 
				542.4,364.9 			"/>
		</g>
		<g>
			<polygon fill="#3A0B2E" points="541.5,363.1 550.5,354.6 548.2,350.9 533.7,350.3 532.3,354.4 			"/>
		</g>
		<g>
			<polygon fill="#3A0B2E" points="574.2,436.1 572.2,436.1 572.2,351.3 553,351.3 553,434.5 551,434.5 551,349.3 574.2,349.3 			
				"/>
		</g>
		<g>
			<polygon fill="#3A0B2E" points="563.6,435.3 561.6,435.3 561.6,364.9 570.7,355.1 570.7,350.3 572.7,350.3 572.7,355.9 
				563.6,365.7 			"/>
		</g>
		<g>
			<polygon fill="#3A0B2E" points="563.6,435.3 561.6,435.3 561.6,365.7 552.5,355.9 552.5,350.3 554.5,350.3 554.5,355.1 
				563.6,364.9 			"/>
		</g>
		<g>
			<polygon fill="#3A0B2E" points="562.7,363.1 571.7,354.6 569.4,350.9 554.8,350.3 553.5,354.4 			"/>
		</g>
		<g>
			<rect x="278.2" y="523.3" fill="#3A0B2E" width="2" height="55.6"/>
		</g>
		<g>
			<rect x="247.4" y="523.3" fill="#3A0B2E" width="2" height="55.6"/>
		</g>
		<g>
			<rect x="215.9" y="523.3" fill="#3A0B2E" width="2" height="55.6"/>
		</g>
		<g>
			<rect x="185.1" y="523.3" fill="#3A0B2E" width="2" height="55.6"/>
		</g>
		<g>
			<rect x="134.8" y="509.4" fill="#3A0B2E" width="21.4" height="21.4"/>
		</g>
		<g>
			<rect x="30.5" y="509.4" fill="#3A0B2E" width="21.4" height="21.4"/>
		</g>
		<g>
			<rect x="49.9" y="519.8" fill="#3A0B2E" width="87.3" height="2"/>
		</g>
		<g>
			<rect x="90.3" y="522.1" fill="#3A0B2E" width="2" height="56.2"/>
		</g>
		<g>
			<polygon fill="#3A0B2E" points="211.7,77.1 192.4,58.2 192.4,-20.5 194.4,-20.5 194.4,57.4 213.1,75.6 			"/>
		</g>
		<g>
			<polygon fill="#3A0B2E" points="251,186.2 233.3,168.4 371.4,168.4 396.1,143.7 212.2,143.7 212.2,89.3 214.2,89.3 214.2,141.7 
				401,141.7 372.3,170.4 238.1,170.4 252.4,184.8 			"/>
		</g>
		<g>
			
				<rect x="372.2" y="137.9" transform="matrix(0.7071 0.7071 -0.7071 0.7071 220.1736 -218.0084)" fill="#3A0B2E" width="2" height="37.7"/>
		</g>
		<g>
			<path fill="#3A0B2E" d="M315.4,170.4v-2c6.8,0,12.3-5.5,12.3-12.3s-5.5-12.3-12.3-12.3v-2c7.9,0,14.3,6.4,14.3,14.3
				C329.8,164,323.3,170.4,315.4,170.4z"/>
		</g>
		<g>
			<rect x="289.1" y="143.4" fill="#3A0B2E" width="2" height="24.9"/>
		</g>
		<g>
			<rect x="379.3" y="109.6" fill="#3A0B2E" width="5.2" height="16"/>
		</g>
		<g>
			<rect x="368" y="109.6" fill="#3A0B2E" width="5.2" height="16"/>
		</g>
		<g>
			<rect x="356.8" y="109.6" fill="#3A0B2E" width="5.2" height="16"/>
		</g>
		<g>
			<rect x="345.5" y="109.6" fill="#3A0B2E" width="5.2" height="16"/>
		</g>
		<g>
			<rect x="334.5" y="109.6" fill="#3A0B2E" width="5.2" height="16"/>
		</g>
		<g>
			<rect x="323.3" y="109.6" fill="#3A0B2E" width="5.2" height="16"/>
		</g>
		<g>
			<rect x="312" y="109.6" fill="#3A0B2E" width="5.2" height="16"/>
		</g>
		<g>
			<rect x="300.7" y="109.6" fill="#3A0B2E" width="5.2" height="16"/>
		</g>
		<g>
			<path fill="#3A0B2E" d="M439.1,209c-12.2,0-22.2-10-22.2-22.2s10-22.2,22.2-22.2s22.2,10,22.2,22.2S451.3,209,439.1,209z
				 M439.1,166.7c-11.1,0-20.2,9.1-20.2,20.2s9.1,20.2,20.2,20.2s20.2-9.1,20.2-20.2S450.2,166.7,439.1,166.7z"/>
		</g>
		<g>
			<path fill="#3A0B2E" d="M335.6,295.5c-12.2,0-22.2-10-22.2-22.2s10-22.2,22.2-22.2s22.2,10,22.2,22.2S347.8,295.5,335.6,295.5z
				 M335.6,253.1c-11.1,0-20.2,9.1-20.2,20.2s9.1,20.2,20.2,20.2s20.2-9.1,20.2-20.2S346.7,253.1,335.6,253.1z"/>
		</g>
		<g>
			<polygon fill="#3A0B2E" points="470.9,250.4 438.1,250.4 438.1,166.3 440.1,166.3 440.1,248.4 470.9,248.4 			"/>
		</g>
		<g>
			<rect x="418.7" y="185.9" fill="#3A0B2E" width="143.2" height="2"/>
		</g>
		<g>
			<polygon fill="#3A0B2E" points="605,289.5 524.4,289.5 524.4,287.5 601.2,287.5 576.3,250.4 525.7,250.4 525.7,248.4 
				577.4,248.4 			"/>
		</g>
		<g>
			<rect x="439.7" y="287.4" fill="#3A0B2E" width="31.2" height="2"/>
		</g>
		<g>
			<polygon fill="#3A0B2E" points="440.7,438.3 392.1,395 392.1,274.3 314.4,274.3 314.4,272.3 394.1,272.3 394.1,394.1 
				438.7,433.9 438.7,270.3 426.4,270.3 426.4,268.3 440.7,268.3 			"/>
		</g>
		<g id="XMLID_37_">
			<rect x="166.7" y="197.1" fill="#3A0B2E" width="9.2" height="9.6"/>
		</g>
		<g id="XMLID_36_">
			<rect x="79.3" y="235.7" fill="#3A0B2E" width="9.2" height="9.6"/>
		</g>
		<g id="XMLID_35_">
			<rect x="65.6" y="235.7" fill="#3A0B2E" width="9.2" height="9.6"/>
		</g>
		<g id="XMLID_29_">
			<rect x="52" y="235.7" fill="#3A0B2E" width="9.2" height="9.6"/>
		</g>
		<g>
			<polygon fill="#3A0B2E" points="119.8,238.6 88.5,238.6 88.5,236.6 119,236.6 155.5,200.8 167.5,200.8 167.5,202.8 156.3,202.8 
							"/>
		</g>
		<g>
			<rect x="7.9" y="187.1" fill="#3A0B2E" width="24.3" height="2"/>
		</g>
		<g>
			<rect x="7.9" y="211.7" fill="#3A0B2E" width="24.3" height="2"/>
		</g>
		<g>
			<line fill="#3A0B2E" x1="85.9" y1="212.7" x2="103.4" y2="212.7"/>
			
				<rect x="85.9" y="211.7" transform="matrix(1 2.064728e-03 -2.064728e-03 1 0.4394 -0.195)" fill="#3A0B2E" width="17.5" height="2"/>
		</g>
		<g>
			<polygon fill="#3A0B2E" points="392.2,249.3 390.2,249.3 390.2,167.9 417.5,141.7 459.3,141.7 459.3,118.6 397.5,118.6 
				397.5,99.2 355.2,99.2 355.2,97.2 399.5,97.2 399.5,116.6 461.3,116.6 461.3,143.7 418.3,143.7 392.2,168.8 			"/>
		</g>
		<g>
			<polygon fill="#3A0B2E" points="429.2,250.3 376.8,250.3 376.8,248.3 427.2,248.3 427.2,218.8 391.2,218.8 391.2,216.8 
				429.2,216.8 			"/>
		</g>
		<g>
			<rect x="391.2" y="232.5" fill="#3A0B2E" width="35.9" height="2"/>
		</g>
		<g>
			<polygon fill="#3A0B2E" points="257.4,225.4 214.4,181.6 168.2,224.8 166.9,223.3 214.4,178.8 257.5,222.6 296.7,185.3 
				360.3,185.3 360.3,187.3 297.5,187.3 			"/>
		</g>
		<g>
			
				<rect x="202.4" y="182" transform="matrix(0.6883 0.7254 -0.7254 0.6883 216.4733 -81.7399)" fill="#3A0B2E" width="2" height="58.1"/>
		</g>
		<g>
			
				<rect x="220.1" y="195.7" transform="matrix(0.6883 0.7254 -0.7254 0.6883 224.8051 -93.3674)" fill="#3A0B2E" width="2" height="38.5"/>
		</g>
		<g>
			
				<rect x="234.2" y="207.2" transform="matrix(0.6883 0.7254 -0.7254 0.6883 233.1516 -101.9053)" fill="#3A0B2E" width="2" height="26.3"/>
		</g>
		<g>
			
				<rect x="202.6" y="226.6" transform="matrix(0.7071 0.7071 -0.7071 0.7071 222.983 -78.1578)" fill="#3A0B2E" width="6.4" height="6.9"/>
		</g>
		<g>
			
				<rect x="221.2" y="228.1" transform="matrix(0.7071 0.7071 -0.7071 0.7071 229.487 -90.8597)" fill="#3A0B2E" width="6.4" height="6.9"/>
		</g>
		<g>
			
				<rect x="178.1" y="229.1" transform="matrix(0.7071 0.7071 -0.7071 0.7071 217.5552 -60.088)" fill="#3A0B2E" width="6.4" height="6.9"/>
		</g>
		<g>
			<path fill="#3A0B2E" d="M137.1,369h-14v-13.3h14V369z M125.1,367h10v-9.3h-10V367z"/>
		</g>
		<g>
			<polygon fill="#3A0B2E" points="281.4,448.8 279.4,448.8 279.4,427.4 128.5,427.4 128.5,408.7 297.9,408.7 297.9,433.8 
				407,433.8 394.8,421.5 313.4,421.5 313.4,409.4 379.3,409.4 366.5,396.5 170.3,396.5 170.3,378.4 294.9,378.4 294.9,365.2 
				150.3,365.2 150.3,380.4 129.7,380.4 129.7,369 131.7,369 131.7,378.4 148.3,378.4 148.3,363.2 296.9,363.2 296.9,380.4 
				172.3,380.4 172.3,394.5 367.3,394.5 384.2,411.4 315.4,411.4 315.4,419.5 395.6,419.5 411.8,435.8 295.9,435.8 295.9,410.7 
				130.5,410.7 130.5,425.4 281.4,425.4 			"/>
		</g>
		<g>
			<path fill="#3A0B2E" d="M288.1,463.7h-15.2v-16h15.2V463.7z M274.9,461.7h11.2v-12h-11.2V461.7z"/>
		</g>
		<g>
			<path fill="#3A0B2E" d="M292.4,497.5h-23.9v-16h23.9V497.5z M270.6,495.5h19.9v-12h-19.9V495.5z"/>
		</g>
		<g>
			<path fill="#3A0B2E" d="M292.4,497.3h-23.9v-35.5h23.9V497.3z M270.6,495.3h19.9v-31.5h-19.9V495.3z"/>
		</g>
		<g>
			<path fill="#3A0B2E" d="M758.5,202.1h-15.2v-16h15.2V202.1z M745.3,200.1h11.2v-12h-11.2V200.1z"/>
		</g>
		<g>
			<path fill="#3A0B2E" d="M762.8,235.9H739v-16h23.9V235.9z M741,233.9h19.9v-12H741V233.9z"/>
		</g>
		<g>
			<path fill="#3A0B2E" d="M762.8,235.7H739v-35.5h23.9V235.7z M741,233.7h19.9v-31.5H741V233.7z"/>
		</g>
		<g>
			<path fill="#3A0B2E" d="M479.7,225.2h-10.3v-14.9h10.3V225.2z M471.4,223.2h6.3v-10.9h-6.3V223.2z"/>
		</g>
		<g>
			<path fill="#3A0B2E" d="M491.5,225.2h-21.9v-14.9h21.9V225.2z M471.6,223.2h17.9v-10.9h-17.9V223.2z"/>
		</g>
		<g>
			<rect x="129.5" y="387.9" fill="#3A0B2E" width="19.8" height="9.8"/>
			<path fill="#3A0B2E" d="M150.3,398.7h-21.8v-11.8h21.8V398.7z M130.5,396.7h17.8v-7.8h-17.8V396.7z"/>
		</g>
		<g>
			<polygon fill="#3A0B2E" points="369.9,327.9 367.9,327.9 367.9,315.1 314.2,315.1 291.6,291.4 291.6,251.7 314,228.1 
				360.3,228.1 360.3,230.1 314.8,230.1 293.6,252.5 293.6,290.6 315.1,313.1 369.9,313.1 			"/>
		</g>
		<g>
			<polygon fill="#3A0B2E" points="318.8,354.4 316.8,354.4 316.8,336.5 300.8,336.5 269.3,304 269.3,239.3 307.4,204.9 
				391.2,204.9 391.2,206.9 308.2,206.9 271.3,240.2 271.3,303.2 301.7,334.5 318.8,334.5 			"/>
		</g>
		<g>
			<rect x="316.7" y="334.5" fill="#3A0B2E" width="14.1" height="2"/>
		</g>
		<g>
			<rect x="393.8" y="305.8" fill="#3A0B2E" width="14.1" height="2"/>
		</g>
		<g>
			<rect x="393.8" y="331.1" fill="#3A0B2E" width="14.1" height="2"/>
		</g>
		<g>
			<rect x="393.8" y="355.6" fill="#3A0B2E" width="14.1" height="2"/>
		</g>
		<g>
			<polygon fill="#3A0B2E" points="275,357.8 275,334.9 294.7,357.8 			"/>
		</g>
		<g>
			<polygon fill="#3A0B2E" points="652.3,206.3 652.3,229.2 632.6,206.3 			"/>
		</g>
		<g>
			<rect x="563.7" y="152.1" fill="#3A0B2E" width="84.2" height="10.7"/>
			<path fill="#3A0B2E" d="M649,163.8h-86.2v-12.7H649V163.8z M564.7,161.8H647v-8.7h-82.2V161.8z"/>
		</g>
		<g>
			<rect x="567.2" y="162.8" fill="#3A0B2E" width="2" height="16.4"/>
		</g>
		<g>
			<rect x="587.2" y="108" fill="#3A0B2E" width="2" height="44"/>
		</g>
		<g>
			<polygon fill="#3A0B2E" points="613.9,151.1 611.9,151.1 611.9,82.3 669.8,82.3 669.8,84.3 613.9,84.3 			"/>
		</g>
		<g>
			<rect x="628.6" y="65.6" fill="#3A0B2E" width="2" height="16.2"/>
		</g>
		<g>
			<polygon fill="#3A0B2E" points="630.6,151.1 628.6,151.1 628.6,100.8 687.4,100.8 687.4,102.8 630.6,102.8 			"/>
		</g>
		<g>
			<polygon fill="#3A0B2E" points="663.2,266.2 612.7,192.2 703.3,192.2 703.3,127.4 690.9,127.4 690.9,177.8 675.8,177.8 
				675.8,126.6 662.1,126.6 662.1,180.3 589.9,180.3 618.2,218.8 491.6,218.8 491.6,216.8 614.3,216.8 585.9,178.3 660.1,178.3 
				660.1,124.6 677.8,124.6 677.8,175.8 688.9,175.8 688.9,125.4 705.3,125.4 705.3,194.2 616.5,194.2 661.2,259.7 661.2,207.3 
				705.3,207.3 705.3,223.8 677.8,223.8 677.8,236.4 718.6,236.4 718.6,166.2 751.9,166.2 751.9,188.2 749.9,188.2 749.9,168.2 
				720.6,168.2 720.6,238.4 675.8,238.4 675.8,221.8 703.3,221.8 703.3,209.3 663.2,209.3 			"/>
		</g>
		<g>
			
				<rect x="595.6" y="266.7" transform="matrix(0.5147 0.8574 -0.8574 0.5147 532.6627 -405.5288)" fill="#3A0B2E" width="57.8" height="2"/>
		</g>
		<g>
			<rect x="757.5" y="261.3" fill="#3A0B2E" width="8.6" height="8.6"/>
		</g>
		<g>
			<rect x="736.6" y="261.3" fill="#3A0B2E" width="8.6" height="8.6"/>
		</g>
		<g>
			<rect x="716.1" y="261.3" fill="#3A0B2E" width="8.6" height="8.6"/>
		</g>
		<g>
			<rect x="695" y="261.3" fill="#3A0B2E" width="8.6" height="8.6"/>
		</g>
		<g>
			<polygon fill="#3A0B2E" points="471.4,402.1 469.4,402.1 469.4,310.2 605.6,310.2 677.6,269.3 677.6,248.3 762.8,248.3 
				762.8,262 760.8,262 760.8,250.3 679.6,250.3 679.6,270.5 606.1,312.2 471.4,312.2 			"/>
		</g>
		<g>
			<rect x="739.9" y="249.3" fill="#3A0B2E" width="2" height="12.6"/>
		</g>
		<g>
			<rect x="719.4" y="249.3" fill="#3A0B2E" width="2" height="12.6"/>
		</g>
		<g>
			<rect x="698.3" y="249.3" fill="#3A0B2E" width="2" height="12.6"/>
		</g>
		<g>
			
				<rect x="497.2" y="332.3" transform="matrix(0.9999 1.217142e-02 -1.217142e-02 0.9999 4.0973 -6.6759)" fill="#3A0B2E" width="106.6" height="2"/>
		</g>
		<g>
			<polygon fill="#3A0B2E" points="747.5,516.2 655.8,516.2 646,473.4 608.9,453.6 608.9,478.8 592.2,478.8 592.2,424.6 
				656.4,460.1 665.2,488.1 745.6,488.8 701,424 678.5,424 625.2,393.6 626.2,391.9 679,422 702.1,422 749.4,490.8 663.7,490.1 
				654.8,461.5 594.2,428 594.2,476.8 606.9,476.8 606.9,450.3 647.8,472.1 657.4,514.2 747.5,514.2 			"/>
		</g>
		<g>
			<rect x="748.5" y="488.8" fill="#3A0B2E" width="59" height="2"/>
		</g>
		<circle fill="#38112D" cx="261.9" cy="99.1" r="6.6"/>
		<path fill="#7C1D58" d="M261.9,106.6c-4.2,0-7.6-3.4-7.6-7.6s3.4-7.6,7.6-7.6s7.6,3.4,7.6,7.6S266.1,106.6,261.9,106.6z
			 M261.9,93.5c-3.1,0-5.6,2.5-5.6,5.6s2.5,5.6,5.6,5.6s5.6-2.5,5.6-5.6S265,93.5,261.9,93.5z"/>
		<circle fill="#38112D" cx="813.1" cy="288.4" r="6.3"/>
		<path fill="#7C1D58" d="M813.1,295.7c-4,0-7.3-3.3-7.3-7.3s3.3-7.3,7.3-7.3s7.3,3.3,7.3,7.3S817.1,295.7,813.1,295.7z
			 M813.1,283.1c-2.9,0-5.3,2.4-5.3,5.3s2.4,5.3,5.3,5.3s5.3-2.4,5.3-5.3S816,283.1,813.1,283.1z"/>
		<circle fill="#38112D" cx="766.1" cy="332.8" r="6.3"/>
		<path fill="#7C1D58" d="M766.1,340.1c-4,0-7.3-3.3-7.3-7.3s3.3-7.3,7.3-7.3s7.3,3.3,7.3,7.3S770.1,340.1,766.1,340.1z
			 M766.1,327.5c-2.9,0-5.3,2.4-5.3,5.3c0,2.9,2.4,5.3,5.3,5.3s5.3-2.4,5.3-5.3C771.4,329.9,769,327.5,766.1,327.5z"/>
		<circle fill="#38112D" cx="800" cy="355.9" r="6.3"/>
		<path fill="#7C1D58" d="M800,363.2c-4,0-7.3-3.3-7.3-7.3s3.3-7.3,7.3-7.3s7.3,3.3,7.3,7.3S804,363.2,800,363.2z M800,350.5
			c-2.9,0-5.3,2.4-5.3,5.3s2.4,5.3,5.3,5.3c2.9,0,5.3-2.4,5.3-5.3S802.9,350.5,800,350.5z"/>
		<circle fill="#38112D" cx="419.4" cy="269.3" r="6.3"/>
		<path fill="#7C1D58" d="M419.4,276.6c-4,0-7.3-3.3-7.3-7.3s3.3-7.3,7.3-7.3s7.3,3.3,7.3,7.3S423.4,276.6,419.4,276.6z
			 M419.4,263.9c-2.9,0-5.3,2.4-5.3,5.3c0,2.9,2.4,5.3,5.3,5.3s5.3-2.4,5.3-5.3C424.7,266.3,422.3,263.9,419.4,263.9z"/>
		<circle fill="#38112D" cx="568.2" cy="186.9" r="6.3"/>
		<path fill="#7C1D58" d="M568.2,194.2c-4,0-7.3-3.3-7.3-7.3s3.3-7.3,7.3-7.3s7.3,3.3,7.3,7.3S572.3,194.2,568.2,194.2z
			 M568.2,181.5c-2.9,0-5.3,2.4-5.3,5.3s2.4,5.3,5.3,5.3c2.9,0,5.3-2.4,5.3-5.3S571.2,181.5,568.2,181.5z"/>
		<circle fill="#38112D" cx="605.9" cy="236.7" r="6.3"/>
		<path fill="#7C1D58" d="M605.9,244c-4,0-7.3-3.3-7.3-7.3s3.3-7.3,7.3-7.3s7.3,3.3,7.3,7.3S609.9,244,605.9,244z M605.9,231.4
			c-2.9,0-5.3,2.4-5.3,5.3s2.4,5.3,5.3,5.3s5.3-2.4,5.3-5.3S608.8,231.4,605.9,231.4z"/>
		<circle fill="#38112D" cx="587.9" cy="101.4" r="6.3"/>
		<path fill="#7C1D58" d="M587.9,108.8c-4,0-7.3-3.3-7.3-7.3s3.3-7.3,7.3-7.3s7.3,3.3,7.3,7.3S592,108.8,587.9,108.8z M587.9,96.1
			c-2.9,0-5.3,2.4-5.3,5.3s2.4,5.3,5.3,5.3c2.9,0,5.3-2.4,5.3-5.3S590.8,96.1,587.9,96.1z"/>
		<circle fill="#38112D" cx="629.6" cy="58.3" r="6.3"/>
		<path fill="#7C1D58" d="M629.6,65.6c-4,0-7.3-3.3-7.3-7.3s3.3-7.3,7.3-7.3s7.3,3.3,7.3,7.3S633.6,65.6,629.6,65.6z M629.6,53
			c-2.9,0-5.3,2.4-5.3,5.3c0,2.9,2.4,5.3,5.3,5.3s5.3-2.4,5.3-5.3C634.9,55.3,632.5,53,629.6,53z"/>
		<circle fill="#38112D" cx="676.8" cy="83.9" r="6.3"/>
		<path fill="#7C1D58" d="M676.8,91.2c-4,0-7.3-3.3-7.3-7.3s3.3-7.3,7.3-7.3s7.3,3.3,7.3,7.3S680.8,91.2,676.8,91.2z M676.8,78.6
			c-2.9,0-5.3,2.4-5.3,5.3c0,2.9,2.4,5.3,5.3,5.3c2.9,0,5.3-2.4,5.3-5.3C682.1,80.9,679.7,78.6,676.8,78.6z"/>
		<circle fill="#38112D" cx="694.7" cy="101.8" r="6.3"/>
		<path fill="#7C1D58" d="M694.7,109.1c-4,0-7.3-3.3-7.3-7.3s3.3-7.3,7.3-7.3s7.3,3.3,7.3,7.3S698.7,109.1,694.7,109.1z M694.7,96.4
			c-2.9,0-5.3,2.4-5.3,5.3s2.4,5.3,5.3,5.3s5.3-2.4,5.3-5.3S697.6,96.4,694.7,96.4z"/>
		<circle fill="#38112D" cx="368.9" cy="249.3" r="6.3"/>
		<path fill="#7C1D58" d="M368.9,256.6c-4,0-7.3-3.3-7.3-7.3s3.3-7.3,7.3-7.3s7.3,3.3,7.3,7.3S373,256.6,368.9,256.6z M368.9,244
			c-2.9,0-5.3,2.4-5.3,5.3c0,2.9,2.4,5.3,5.3,5.3c2.9,0,5.3-2.4,5.3-5.3C374.3,246.4,371.9,244,368.9,244z"/>
		<circle fill="#38112D" cx="317.8" cy="361.7" r="6.3"/>
		<path fill="#7C1D58" d="M317.8,369c-4,0-7.3-3.3-7.3-7.3s3.3-7.3,7.3-7.3s7.3,3.3,7.3,7.3S321.9,369,317.8,369z M317.8,356.4
			c-2.9,0-5.3,2.4-5.3,5.3s2.4,5.3,5.3,5.3c2.9,0,5.3-2.4,5.3-5.3S320.8,356.4,317.8,356.4z"/>
		<circle fill="#38112D" cx="338.2" cy="335.5" r="6.3"/>
		<path fill="#7C1D58" d="M338.2,342.8c-4,0-7.3-3.3-7.3-7.3s3.3-7.3,7.3-7.3s7.3,3.3,7.3,7.3S342.2,342.8,338.2,342.8z
			 M338.2,330.2c-2.9,0-5.3,2.4-5.3,5.3c0,2.9,2.4,5.3,5.3,5.3c2.9,0,5.3-2.4,5.3-5.3C343.5,332.6,341.1,330.2,338.2,330.2z"/>
		<circle fill="#38112D" cx="369.8" cy="334.2" r="6.3"/>
		<path fill="#7C1D58" d="M369.8,341.6c-4,0-7.3-3.3-7.3-7.3s3.3-7.3,7.3-7.3s7.3,3.3,7.3,7.3S373.8,341.6,369.8,341.6z
			 M369.8,328.9c-2.9,0-5.3,2.4-5.3,5.3c0,2.9,2.4,5.3,5.3,5.3c2.9,0,5.3-2.4,5.3-5.3C375.1,331.3,372.7,328.9,369.8,328.9z"/>
		<circle fill="#38112D" cx="368.9" cy="229.1" r="6.3"/>
		<path fill="#7C1D58" d="M368.9,236.4c-4,0-7.3-3.3-7.3-7.3s3.3-7.3,7.3-7.3s7.3,3.3,7.3,7.3S373,236.4,368.9,236.4z M368.9,223.8
			c-2.9,0-5.3,2.4-5.3,5.3s2.4,5.3,5.3,5.3c2.9,0,5.3-2.4,5.3-5.3S371.9,223.8,368.9,223.8z"/>
		<circle fill="#38112D" cx="368.9" cy="186.9" r="6.3"/>
		<path fill="#7C1D58" d="M368.9,194.2c-4,0-7.3-3.3-7.3-7.3s3.3-7.3,7.3-7.3s7.3,3.3,7.3,7.3S373,194.2,368.9,194.2z M368.9,181.5
			c-2.9,0-5.3,2.4-5.3,5.3s2.4,5.3,5.3,5.3c2.9,0,5.3-2.4,5.3-5.3S371.9,181.5,368.9,181.5z"/>
		<circle fill="#38112D" cx="257.4" cy="190.5" r="6.3"/>
		<path fill="#7C1D58" d="M257.4,197.8c-4,0-7.3-3.3-7.3-7.3s3.3-7.3,7.3-7.3c4,0,7.3,3.3,7.3,7.3S261.5,197.8,257.4,197.8z
			 M257.4,185.2c-2.9,0-5.3,2.4-5.3,5.3c0,2.9,2.4,5.3,5.3,5.3c2.9,0,5.3-2.4,5.3-5.3C262.8,187.6,260.4,185.2,257.4,185.2z"/>
		<circle fill="#38112D" cx="163.5" cy="229.3" r="6.3"/>
		<path fill="#7C1D58" d="M163.5,236.6c-4,0-7.3-3.3-7.3-7.3s3.3-7.3,7.3-7.3s7.3,3.3,7.3,7.3S167.5,236.6,163.5,236.6z M163.5,224
			c-2.9,0-5.3,2.4-5.3,5.3s2.4,5.3,5.3,5.3c2.9,0,5.3-2.4,5.3-5.3S166.4,224,163.5,224z"/>
		<circle fill="#38112D" cx="109" cy="212.2" r="6.3"/>
		<path fill="#7C1D58" d="M109,219.5c-4,0-7.3-3.3-7.3-7.3s3.3-7.3,7.3-7.3s7.3,3.3,7.3,7.3S113,219.5,109,219.5z M109,206.8
			c-2.9,0-5.3,2.4-5.3,5.3c0,2.9,2.4,5.3,5.3,5.3c2.9,0,5.3-2.4,5.3-5.3C114.3,209.2,111.9,206.8,109,206.8z"/>
		<circle fill="#38112D" cx="109" cy="186.5" r="6.3"/>
		<path fill="#7C1D58" d="M109,193.9c-4,0-7.3-3.3-7.3-7.3s3.3-7.3,7.3-7.3s7.3,3.3,7.3,7.3S113,193.9,109,193.9z M109,181.2
			c-2.9,0-5.3,2.4-5.3,5.3c0,2.9,2.4,5.3,5.3,5.3c2.9,0,5.3-2.4,5.3-5.3C114.3,183.6,111.9,181.2,109,181.2z"/>
		<circle fill="#38112D" cx="109" cy="58.8" r="6.3"/>
		<path fill="#7C1D58" d="M109,66.1c-4,0-7.3-3.3-7.3-7.3s3.3-7.3,7.3-7.3s7.3,3.3,7.3,7.3S113,66.1,109,66.1z M109,53.4
			c-2.9,0-5.3,2.4-5.3,5.3s2.4,5.3,5.3,5.3c2.9,0,5.3-2.4,5.3-5.3S111.9,53.4,109,53.4z"/>
		<circle fill="#38112D" cx="216" cy="82.5" r="6.3"/>
		<path fill="#7C1D58" d="M216,89.8c-4,0-7.3-3.3-7.3-7.3s3.3-7.3,7.3-7.3s7.3,3.3,7.3,7.3S220,89.8,216,89.8z M216,77.1
			c-2.9,0-5.3,2.4-5.3,5.3s2.4,5.3,5.3,5.3s5.3-2.4,5.3-5.3S218.9,77.1,216,77.1z"/>
		<circle fill="#38112D" cx="216" cy="36.6" r="6.3"/>
		<path fill="#7C1D58" d="M216,44c-4,0-7.3-3.3-7.3-7.3s3.3-7.3,7.3-7.3s7.3,3.3,7.3,7.3S220,44,216,44z M216,31.3
			c-2.9,0-5.3,2.4-5.3,5.3c0,2.9,2.4,5.3,5.3,5.3s5.3-2.4,5.3-5.3C221.3,33.7,218.9,31.3,216,31.3z"/>
		<circle fill="#38112D" cx="109" cy="15.7" r="6.3"/>
		<path fill="#7C1D58" d="M109,23c-4,0-7.3-3.3-7.3-7.3s3.3-7.3,7.3-7.3s7.3,3.3,7.3,7.3S113,23,109,23z M109,10.4
			c-2.9,0-5.3,2.4-5.3,5.3c0,2.9,2.4,5.3,5.3,5.3c2.9,0,5.3-2.4,5.3-5.3C114.3,12.8,111.9,10.4,109,10.4z"/>
		<circle fill="#38112D" cx="590" cy="387" r="6.3"/>
		<path fill="#7C1D58" d="M590,394.3c-4,0-7.3-3.3-7.3-7.3s3.3-7.3,7.3-7.3s7.3,3.3,7.3,7.3S594,394.3,590,394.3z M590,381.7
			c-2.9,0-5.3,2.4-5.3,5.3c0,2.9,2.4,5.3,5.3,5.3s5.3-2.4,5.3-5.3C595.3,384.1,592.9,381.7,590,381.7z"/>
		<circle fill="#38112D" cx="490.7" cy="333.9" r="6.3"/>
		<path fill="#7C1D58" d="M490.7,341.2c-4,0-7.3-3.3-7.3-7.3s3.3-7.3,7.3-7.3s7.3,3.3,7.3,7.3S494.8,341.2,490.7,341.2z
			 M490.7,328.6c-2.9,0-5.3,2.4-5.3,5.3c0,2.9,2.4,5.3,5.3,5.3s5.3-2.4,5.3-5.3C496,331,493.7,328.6,490.7,328.6z"/>
		<circle fill="#38112D" cx="470.9" cy="409.7" r="6.3"/>
		<path fill="#7C1D58" d="M470.9,417c-4,0-7.3-3.3-7.3-7.3s3.3-7.3,7.3-7.3s7.3,3.3,7.3,7.3S474.9,417,470.9,417z M470.9,404.4
			c-2.9,0-5.3,2.4-5.3,5.3c0,2.9,2.4,5.3,5.3,5.3c2.9,0,5.3-2.4,5.3-5.3C476.2,406.8,473.8,404.4,470.9,404.4z"/>
		<circle fill="#38112D" cx="237.3" cy="447.6" r="6.3"/>
		<path fill="#7C1D58" d="M237.3,454.9c-4,0-7.3-3.3-7.3-7.3s3.3-7.3,7.3-7.3s7.3,3.3,7.3,7.3S241.4,454.9,237.3,454.9z
			 M237.3,442.3c-2.9,0-5.3,2.4-5.3,5.3c0,2.9,2.4,5.3,5.3,5.3c2.9,0,5.3-2.4,5.3-5.3C242.6,444.6,240.3,442.3,237.3,442.3z"/>
		<circle fill="#38112D" cx="186.1" cy="515.7" r="6.3"/>
		<path fill="#7C1D58" d="M186.1,523.1c-4,0-7.3-3.3-7.3-7.3c0-4,3.3-7.3,7.3-7.3s7.3,3.3,7.3,7.3
			C193.4,519.8,190.1,523.1,186.1,523.1z M186.1,510.4c-2.9,0-5.3,2.4-5.3,5.3c0,2.9,2.4,5.3,5.3,5.3s5.3-2.4,5.3-5.3
			C191.4,512.8,189,510.4,186.1,510.4z"/>
		<circle fill="#38112D" cx="216.9" cy="515.7" r="6.3"/>
		<path fill="#7C1D58" d="M216.9,523.1c-4,0-7.3-3.3-7.3-7.3c0-4,3.3-7.3,7.3-7.3s7.3,3.3,7.3,7.3
			C224.2,519.8,220.9,523.1,216.9,523.1z M216.9,510.4c-2.9,0-5.3,2.4-5.3,5.3c0,2.9,2.4,5.3,5.3,5.3s5.3-2.4,5.3-5.3
			C222.2,512.8,219.8,510.4,216.9,510.4z"/>
		<circle fill="#38112D" cx="248.4" cy="515.7" r="6.3"/>
		<path fill="#7C1D58" d="M248.4,523.1c-4,0-7.3-3.3-7.3-7.3c0-4,3.3-7.3,7.3-7.3s7.3,3.3,7.3,7.3
			C255.7,519.8,252.4,523.1,248.4,523.1z M248.4,510.4c-2.9,0-5.3,2.4-5.3,5.3c0,2.9,2.4,5.3,5.3,5.3s5.3-2.4,5.3-5.3
			C253.7,512.8,251.3,510.4,248.4,510.4z"/>
		<circle fill="#38112D" cx="279.2" cy="515.7" r="6.3"/>
		<path fill="#7C1D58" d="M279.2,523.1c-4,0-7.3-3.3-7.3-7.3c0-4,3.3-7.3,7.3-7.3s7.3,3.3,7.3,7.3
			C286.5,519.8,283.2,523.1,279.2,523.1z M279.2,510.4c-2.9,0-5.3,2.4-5.3,5.3c0,2.9,2.4,5.3,5.3,5.3c2.9,0,5.3-2.4,5.3-5.3
			C284.5,512.8,282.1,510.4,279.2,510.4z"/>
		<circle fill="#38112D" cx="619.4" cy="388.9" r="6.3"/>
		<path fill="#7C1D58" d="M619.4,396.3c-4,0-7.3-3.3-7.3-7.3s3.3-7.3,7.3-7.3s7.3,3.3,7.3,7.3S623.5,396.3,619.4,396.3z
			 M619.4,383.6c-2.9,0-5.3,2.4-5.3,5.3s2.4,5.3,5.3,5.3c2.9,0,5.3-2.4,5.3-5.3S622.3,383.6,619.4,383.6z"/>
		<circle fill="#38112D" cx="813.9" cy="489.8" r="6.3"/>
		<path fill="#7C1D58" d="M813.9,497.1c-4,0-7.3-3.3-7.3-7.3s3.3-7.3,7.3-7.3s7.3,3.3,7.3,7.3S817.9,497.1,813.9,497.1z
			 M813.9,484.5c-2.9,0-5.3,2.4-5.3,5.3c0,2.9,2.4,5.3,5.3,5.3c2.9,0,5.3-2.4,5.3-5.3C819.2,486.8,816.8,484.5,813.9,484.5z"/>
		<circle fill="#38112D" cx="695" cy="460.3" r="6.3"/>
		<path fill="#7C1D58" d="M695,467.6c-4,0-7.3-3.3-7.3-7.3s3.3-7.3,7.3-7.3s7.3,3.3,7.3,7.3S699.1,467.6,695,467.6z M695,455
			c-2.9,0-5.3,2.4-5.3,5.3s2.4,5.3,5.3,5.3c2.9,0,5.3-2.4,5.3-5.3S698,455,695,455z"/>
		<circle fill="#38112D" cx="753.8" cy="515.2" r="6.3"/>
		<path fill="#7C1D58" d="M753.8,522.5c-4,0-7.3-3.3-7.3-7.3c0-4,3.3-7.3,7.3-7.3s7.3,3.3,7.3,7.3
			C761.1,519.3,757.8,522.5,753.8,522.5z M753.8,509.9c-2.9,0-5.3,2.4-5.3,5.3s2.4,5.3,5.3,5.3c2.9,0,5.3-2.4,5.3-5.3
			S756.7,509.9,753.8,509.9z"/>
		<rect x="297.1" y="143.4" fill="#38112D" width="20.7" height="25.8"/>
		<rect x="683.7" y="332.5" fill="#3A0B2E" width="74.5" height="2"/>
		<line fill="#38112D" x1="84.7" y1="163.5" x2="103.4" y2="181.8"/>
		
			<rect x="81" y="171.6" transform="matrix(0.7138 0.7004 -0.7004 0.7138 147.8353 -16.4764)" fill="#3A0B2E" width="26.2" height="2"/>
		<rect x="66.2" y="14.7" fill="#3A0B2E" width="34.8" height="2"/>
		<rect x="333.3" y="359.7" fill="#3A0B2E" width="18.3" height="4"/>
		<rect x="361.7" y="359.7" fill="#3A0B2E" width="18.3" height="4"/>
		<line fill="#38112D" x1="370.8" y1="352.5" x2="370.8" y2="370.9"/>
		<rect x="368.8" y="352.5" fill="#3A0B2E" width="4" height="18.3"/>
		<rect x="724.7" y="136.4" fill="#3A0B2E" width="18.3" height="2"/>
		<line fill="#38112D" x1="733.8" y1="128.2" x2="733.8" y2="146.5"/>
		<rect x="732.8" y="128.2" fill="#3A0B2E" width="2" height="18.3"/>
		<circle fill="#38112D" cx="415.3" cy="306.8" r="6.3"/>
		<path fill="#7C1D58" d="M415.3,314.1c-4,0-7.3-3.3-7.3-7.3s3.3-7.3,7.3-7.3s7.3,3.3,7.3,7.3S419.3,314.1,415.3,314.1z
			 M415.3,301.5c-2.9,0-5.3,2.4-5.3,5.3c0,2.9,2.4,5.3,5.3,5.3s5.3-2.4,5.3-5.3C420.6,303.8,418.2,301.5,415.3,301.5z"/>
		<circle fill="#38112D" cx="415.3" cy="332.1" r="6.3"/>
		<path fill="#7C1D58" d="M415.3,339.4c-4,0-7.3-3.3-7.3-7.3s3.3-7.3,7.3-7.3s7.3,3.3,7.3,7.3S419.3,339.4,415.3,339.4z
			 M415.3,326.7c-2.9,0-5.3,2.4-5.3,5.3c0,2.9,2.4,5.3,5.3,5.3s5.3-2.4,5.3-5.3C420.6,329.1,418.2,326.7,415.3,326.7z"/>
		<circle fill="#38112D" cx="415.3" cy="356.6" r="6.3"/>
		<path fill="#7C1D58" d="M415.3,364c-4,0-7.3-3.3-7.3-7.3s3.3-7.3,7.3-7.3s7.3,3.3,7.3,7.3S419.3,364,415.3,364z M415.3,351.3
			c-2.9,0-5.3,2.4-5.3,5.3c0,2.9,2.4,5.3,5.3,5.3s5.3-2.4,5.3-5.3C420.6,353.7,418.2,351.3,415.3,351.3z"/>
		<line fill="#38112D" x1="745.1" y1="488.6" x2="698.9" y2="463.4"/>
		
			<rect x="695.7" y="475" transform="matrix(0.878 0.4786 -0.4786 0.878 315.9073 -287.5018)" fill="#3A0B2E" width="52.6" height="2"/>
		<line fill="#38112D" x1="655.6" y1="460.8" x2="677.9" y2="423.9"/>
		
			<rect x="665.8" y="420.8" transform="matrix(0.8554 0.518 -0.518 0.8554 325.5755 -281.4111)" fill="#3A0B2E" width="2" height="43.1"/>
		<line fill="#38112D" x1="646.8" y1="454.9" x2="669.1" y2="418.1"/>
		
			<rect x="657" y="414.9" transform="matrix(0.8554 0.518 -0.518 0.8554 321.2581 -277.7184)" fill="#3A0B2E" width="2" height="43.1"/>
		<g>
			<rect x="450" y="446.9" fill="#3A0B2E" width="20.9" height="20.9"/>
		</g>
		<g>
			<rect x="479.6" y="496.7" fill="#3A0B2E" width="7.4" height="7.4"/>
		</g>
		<g>
			<rect x="479.6" y="518" fill="#3A0B2E" width="7.4" height="7.4"/>
		</g>
		<g>
			<rect x="457.8" y="466.6" fill="#3A0B2E" width="2" height="114"/>
		</g>
		<g>
			<path fill="#3A0B2E" d="M474.8,501.6c-5.9,0-14.4,0-14.4,0v-2c0,0,19.1,0,19.8,0l0,2C480,501.6,477.8,501.6,474.8,501.6z"/>
		</g>
		<g>
			<path fill="#3A0B2E" d="M474.8,522.7c-5.9,0-14.4,0-14.4,0v-2c0,0,19.1,0,19.8,0l0,2C480,522.7,477.8,522.7,474.8,522.7z"/>
		</g>
		<g>
			<rect x="215" y="-22.2" fill="#3A0B2E" width="2" height="52.5"/>
		</g>
		<g>
			<rect x="460.3" y="130" fill="#3A0B2E" width="17.4" height="2"/>
		</g>
		<g>
			<circle fill="#3A0B2E" cx="530.4" cy="135.7" r="1.1"/>
		</g>
		<g>
			<rect x="539.1" y="124" fill="#3A0B2E" width="2" height="12.7"/>
		</g>
		<g>
			<rect x="519.7" y="124" fill="#3A0B2E" width="2" height="12.7"/>
		</g>
	</g>
</g>
</svg>
