<?xml version="1.0" encoding="utf-8"?>
<!-- Generator: Adobe Illustrator 19.1.0, SVG Export Plug-In . SVG Version: 6.00 Build 0)  -->
<!DOCTYPE svg PUBLIC "-//W3C//DTD SVG 1.1//EN" "http://www.w3.org/Graphics/SVG/1.1/DTD/svg11.dtd">
<svg version="1.1" id="Layer_1" xmlns="http://www.w3.org/2000/svg" xmlns:xlink="http://www.w3.org/1999/xlink" x="0px" y="0px"
	 width="47.5px" height="48.8px" viewBox="0 0 47.5 48.8" enable-background="new 0 0 47.5 48.8" xml:space="preserve">
<symbol  id="iot-man" viewBox="-34 -35.1 68 70.1">
	<path fill="#FFFFFF" d="M32.7-9H21v6h11.5c1,0,1.5,0.6,1.5,1.6v2.1c0,1-0.5,1.3-1.5,1.3H21v6h11.5c1,0,1.5,1,1.5,2v2.1
		c0,1-0.5,1.9-1.5,1.9H21v7h-7v12.6c0,1-0.5,1.4-1.5,1.4h-2.1c-1,0-1.5-0.5-1.5-1.4V21H3v12.4c0,1-1.1,1.6-2,1.6h-2.1
		c-1,0-1.9-0.6-1.9-1.6V21h-6v12.4c0,1-0.5,1.6-1.5,1.6h-2.1c-1,0-1.5-0.6-1.5-1.6V21h-7v-7h-11.5c-1,0-1.5-0.5-1.5-1.5v-2.1
		c0-1,0.5-1.5,1.5-1.5H-21V2h-11.7c-1,0-1.3-0.4-1.3-1.3v-2.1c0-1,0.4-1.6,1.3-1.6H-21v-6h-11.7c-1,0-1.3-0.8-1.3-1.8v-2.1
		c0-1,0.4-2.2,1.3-2.2H-21v-6h7v-12.6c0-0.1-0.1-0.2-0.1-0.3l1.4-1.3c0.1,0,0.1,0.1,0.2,0.1h2.1c1,0,1.5,0.5,1.5,1.4V-21h6v-12.6
		c0-1,0.9-1.4,1.9-1.4H1c1,0,2,0.5,2,1.4V-21h6v-12.4c0-1,0.5-1.6,1.5-1.6h2.1c1,0,1.5,0.6,1.5,1.6V-21h7v7h11.7
		c1,0,1.3,0.6,1.3,1.6v2.1C34-9.3,33.6-9,32.7-9z M-0.1-8.7c-4.6,0-8.3,3.7-8.3,8.3s3.7,8.3,8.3,8.3s8.3-3.7,8.3-8.3
		S4.5-8.7-0.1-8.7z"/>
	<polygon display="none" fill="none" points="-34,35 34,35 34,-35 -34,-35 	"/>
</symbol>
<path fill="#464646" d="M46.3,30.3H38v-3.7h8.2c0.7,0,1.2-0.6,1.2-1.2v-1.4c0-0.7-0.6-1.2-1.2-1.2H38v-4h8.2c0.7,0,1.2-0.6,1.2-1.2
	V16c0-0.7-0.6-1.2-1.2-1.2H38V9.9h-4.4V1.2c0-0.7-0.6-1.2-1.2-1.2H31c-0.7,0-1.2,0.6-1.2,1.2v8.7h-4.1V1.3c0-0.7-0.6-1.2-1.2-1.2H23
	c-0.7,0-1.2,0.6-1.2,1.2v8.6h-4V1.3c0-0.7-0.6-1.2-1.2-1.2h-1.4c-0.7,0-1.2,0.6-1.2,1.2v8.6H9.4v4.6H1.3c-0.7,0-1.2,0.6-1.2,1.2v1.4
	c0,0.7,0.6,1.2,1.2,1.2h8.1v4.3H1.2c-0.7,0-1.2,0.6-1.2,1.2v1.4c0,0.7,0.6,1.2,1.2,1.2h8.2v4H1.2c-0.7,0-1.2,0.6-1.2,1.2v1.4
	c0,0.7,0.6,1.2,1.2,1.2h8.2V39h4.5v8.6c0,0.1,0,0.1,0,0.2l1,1c0.1,0,0.1,0,0.2,0h1.4c0.7,0,1.2-0.6,1.2-1.2V39h4v8.6
	c0,0.7,0.6,1.2,1.2,1.2h1.4c0.7,0,1.2-0.6,1.2-1.2V39h4.1v8.5c0,0.7,0.6,1.2,1.2,1.2h1.4c0.7,0,1.2-0.6,1.2-1.2V39H38v-4.8h8.3
	c0.7,0,1.2-0.6,1.2-1.2v-1.4C47.5,30.8,47,30.3,46.3,30.3z M23.7,30.4c-3.2,0-5.7-2.6-5.7-5.7s2.6-5.7,5.7-5.7s5.7,2.6,5.7,5.7
	S26.9,30.4,23.7,30.4z"/>
</svg>
