<?xml version="1.0" encoding="utf-8"?>
<!-- Generator: Adobe Illustrator 19.1.0, SVG Export Plug-In . SVG Version: 6.00 Build 0)  -->
<svg version="1.1" id="Layer_1" xmlns="http://www.w3.org/2000/svg" xmlns:xlink="http://www.w3.org/1999/xlink" x="0px" y="0px"
	 viewBox="0 0 97.1 79.1" enable-background="new 0 0 97.1 79.1" xml:space="preserve">
<g opacity="0.6">
	<g>
		<path fill="#B2B2B2" stroke="#575756" stroke-miterlimit="10" d="M83.8,50.6l0-1.3l5.1,3.1c4.1,2.4,4.2,8.3,0.1,10.8l-3.9,2.3
			l0,4.1l-10,5.9l-3.2-1.9l-3.1,1.9c-6.9,4.2-15.6,4.3-22.6,0.2L3.6,50.8c-4-2.3-4.1-8.2-0.1-10.6l8.2-4.9l4.6-2.6l39.2,22.5
			L69,47.5L79,53.3L83.8,50.6z"/>
		<polygon fill="#B2B2B2" fill-opacity="0.4" stroke="#575756" stroke-linejoin="round" stroke-miterlimit="10" points="96.6,29.7 
			56,53.3 6.2,25.2 8,23.9 8,22.4 45.3,0.5 		"/>
		<polygon fill="#B2B2B2" fill-opacity="0.4" stroke="#575756" stroke-linejoin="round" stroke-miterlimit="10" points="6.2,25.2 
			6.2,26.9 55.6,55.2 96.6,31.5 96.6,29.7 56,53.3 		"/>
		<polygon opacity="0.6" fill="#B2B2B2" stroke="#575756" stroke-miterlimit="10" points="79.1,53.2 79.1,43.7 83.8,41.2 83.8,50.5 
					"/>
		<polygon opacity="0.2" fill="#B2B2B2" stroke="#575756" stroke-miterlimit="10" points="79.1,43.7 79.1,53.2 68.9,47.4 77.3,42.8 
					"/>
		<polygon opacity="0.4" fill="#B2B2B2" stroke="#575756" stroke-miterlimit="10" points="83.8,41.2 79.1,43.7 77.3,42.8 82.1,40.1 
					"/>
		<polygon fill="#B2B2B2" fill-opacity="0.4" stroke="#575756" stroke-miterlimit="10" points="50.3,32.2 51.8,31.3 50.3,30.5 
			48.7,31.3 		"/>
		<polygon fill="#B2B2B2" fill-opacity="0.4" stroke="#575756" stroke-miterlimit="10" points="46.3,58.4 47.8,57.5 46.3,56.6 
			44.7,57.5 		"/>
		<polygon fill="#B2B2B2" fill-opacity="0.4" stroke="#575756" stroke-miterlimit="10" points="86.6,56.5 88.2,55.6 86.6,54.7 
			85.1,55.6 		"/>
		<polygon fill="#B2B2B2" fill-opacity="0.4" stroke="#575756" stroke-miterlimit="10" points="50.8,58.4 52.3,57.5 50.8,56.6 
			49.2,57.5 		"/>
		<polygon fill="#B2B2B2" fill-opacity="0.4" stroke="#575756" stroke-miterlimit="10" points="61.5,40.8 63.8,39.4 61.5,38.1 
			59.2,39.4 		"/>
		<polygon fill="#B2B2B2" fill-opacity="0.4" stroke="#575756" stroke-miterlimit="10" points="58.7,38.6 63,36.2 58.8,33.8 
			54.6,36.2 		"/>
		<polygon fill="#B2B2B2" fill-opacity="0.4" stroke="#575756" stroke-miterlimit="10" points="63,26.8 65.3,25.5 63,24.2 
			60.7,25.5 		"/>
		<g>
			<polygon opacity="0.4" fill="#B2B2B2" points="36,48.7 36.1,44.5 36.7,44.9 36.7,48.6 36.3,48.8 			"/>
			<polygon fill="#575756" points="35.6,43.6 35.5,49.1 36.4,49.3 37.2,48.8 37.2,44.6 35.6,43.6 			"/>
		</g>
		<g>
			<polygon opacity="0.4" fill="#B2B2B2" points="34.1,47.6 34.1,43.4 34.7,43.8 34.7,47.4 34.4,47.7 			"/>
			<polygon fill="#575756" points="33.6,42.5 33.6,47.9 34.4,48.2 35.2,47.7 35.2,43.5 33.6,42.5 			"/>
		</g>
		<g>
			<polygon opacity="0.4" fill="#B2B2B2" points="32.1,46.5 32.1,42.3 32.8,42.7 32.8,46.3 32.4,46.5 			"/>
			<polygon fill="#575756" points="31.6,41.4 31.6,46.8 32.4,47.1 33.3,46.6 33.3,42.4 31.6,41.4 			"/>
		</g>
		<g>
			<polygon opacity="0.4" fill="#B2B2B2" points="30.1,45.3 30.2,41.2 30.8,41.5 30.8,45.2 30.4,45.4 			"/>
			<polygon fill="#575756" points="29.7,40.3 29.6,45.7 30.5,46 31.3,45.5 31.3,41.3 29.7,40.3 			"/>
		</g>
		<g>
			<polygon opacity="0.4" fill="#B2B2B2" points="28.1,44.2 28.2,40 28.8,40.4 28.8,44 28.4,44.3 			"/>
			<polygon fill="#575756" points="27.7,39.1 27.6,44.5 28.5,44.8 29.3,44.3 29.3,40.1 27.7,39.1 			"/>
		</g>
		<g>
			<polygon opacity="0.4" fill="#B2B2B2" points="26.1,43.1 26.2,38.9 26.8,39.3 26.8,42.9 26.4,43.1 			"/>
			<polygon fill="#575756" points="25.7,38 25.6,43.4 26.5,43.7 27.3,43.2 27.3,39 25.7,38 			"/>
		</g>
		<g>
			<polygon opacity="0.4" fill="#B2B2B2" points="24.2,41.9 24.2,37.7 24.8,38.1 24.8,41.8 24.5,42 			"/>
			<polygon fill="#575756" points="23.7,36.8 23.7,42.3 24.5,42.5 25.3,42 25.3,37.8 23.7,36.8 			"/>
		</g>
		<g>
			<polygon opacity="0.4" fill="#B2B2B2" points="22.2,40.8 22.2,36.6 22.9,37 22.9,40.7 22.5,40.9 			"/>
			<polygon fill="#575756" points="21.7,35.7 21.7,41.2 22.6,41.4 23.4,40.9 23.4,36.7 21.7,35.7 			"/>
		</g>
		<g>
			<polygon opacity="0.4" fill="#B2B2B2" points="18.2,38.5 18.3,34.4 18.9,34.7 18.9,38.4 18.5,38.6 			"/>
			<polygon fill="#575756" points="17.8,33.5 17.7,38.9 18.6,39.2 19.4,38.7 19.4,34.5 17.8,33.5 			"/>
		</g>
		<g>
			<polygon opacity="0.4" fill="#B2B2B2" points="16.2,37.4 16.3,33.2 16.9,33.6 16.9,37.2 16.5,37.5 			"/>
			<polygon fill="#575756" points="15.8,32.3 15.7,37.8 16.6,38 17.4,37.5 17.4,33.3 15.8,32.3 			"/>
		</g>
		<g>
			<polygon opacity="0.4" fill="#B2B2B2" points="14.3,36.3 14.3,32.1 14.9,32.5 14.9,36.1 14.6,36.4 			"/>
			<polygon fill="#575756" points="13.8,31.2 13.8,36.6 14.6,36.9 15.4,36.4 15.4,32.2 13.8,31.2 			"/>
		</g>
		<g>
			<polygon opacity="0.4" fill="#B2B2B2" points="12.3,35.1 12.3,30.9 13,31.3 13,34.9 12.6,35.2 			"/>
			<polygon fill="#575756" points="11.8,30 11.8,35.5 12.7,35.7 13.5,35.2 13.5,31 11.8,30 			"/>
		</g>
		<g>
			<polygon opacity="0.4" fill="#B2B2B2" points="10.3,34 10.4,29.8 11,30.2 11,33.8 10.6,34 			"/>
			<polygon fill="#575756" points="9.9,28.9 9.8,34.3 10.7,34.6 11.5,34.1 11.5,29.9 9.9,28.9 			"/>
		</g>
		<g>
			<polygon opacity="0.4" fill="#B2B2B2" points="8.3,32.8 8.4,28.7 9,29.1 9,32.7 8.6,32.9 			"/>
			<polygon fill="#575756" points="7.9,27.8 7.8,33.2 8.7,33.5 9.5,33 9.5,28.8 7.9,27.8 			"/>
		</g>
		<g>
			<path fill="#B2B2B2" stroke="#575756" stroke-miterlimit="10" d="M25.3,22.6c0,0,0.1,0,0.1,0l0.3-0.2c0,0,0-0.1,0-0.1l-2-1.2
				c0,0-0.1,0-0.1,0l-0.3,0.2c0,0,0,0.1,0,0.1L25.3,22.6z"/>
			<path fill="#B2B2B2" stroke="#575756" stroke-miterlimit="10" d="M27,21.7c0,0,0.1,0,0.1,0l0.3-0.2c0,0,0-0.1,0-0.1l-2-1.2
				c0,0-0.1,0-0.1,0L25,20.4c0,0,0,0.1,0,0.1L27,21.7z"/>
			<path fill="#B2B2B2" stroke="#575756" stroke-miterlimit="10" d="M23.5,23.6c0,0,0.1,0,0.1,0l0.3-0.2c0,0,0-0.1,0-0.1l-2-1.2
				c0,0-0.1,0-0.1,0l-0.3,0.2c0,0,0,0.1,0,0.1L23.5,23.6z"/>
			<path fill="#B2B2B2" stroke="#575756" stroke-miterlimit="10" d="M31.5,28.2c0,0,0.1,0,0.1,0l0.3-0.2c0,0,0-0.1,0-0.1l-2-1.2
				c0,0-0.1,0-0.1,0L29.5,27c0,0,0,0.1,0,0.1L31.5,28.2z"/>
			<path fill="#B2B2B2" stroke="#575756" stroke-miterlimit="10" d="M34.9,26.2c0,0,0.1,0,0.1,0l0.3-0.2c0,0,0-0.1,0-0.1l-2-1.2
				c0,0-0.1,0-0.1,0L32.9,25c0,0,0,0.1,0,0.1L34.9,26.2z"/>
			<path fill="#B2B2B2" stroke="#575756" stroke-miterlimit="10" d="M33.2,27.2c0,0,0.1,0,0.1,0l0.3-0.2c0,0,0-0.1,0-0.1l-2-1.2
				c0,0-0.1,0-0.1,0L31.2,26c0,0,0,0.1,0,0.1L33.2,27.2z"/>
			<path fill="#B2B2B2" stroke="#575756" stroke-miterlimit="10" d="M31.5,22.7c0,0,0.1,0,0.1,0l2-1.2c0,0,0-0.1,0-0.1l-0.3-0.2
				c0,0-0.1,0-0.1,0l-2,1.2c0,0,0,0.1,0,0.1L31.5,22.7z"/>
			<path fill="#B2B2B2" stroke="#575756" stroke-miterlimit="10" d="M33.2,23.7c0,0,0.1,0,0.1,0l2-1.2c0,0,0-0.1,0-0.1L35,22.3
				c0,0-0.1,0-0.1,0l-2,1.2c0,0,0,0.1,0,0.1L33.2,23.7z"/>
			<path fill="#B2B2B2" stroke="#575756" stroke-miterlimit="10" d="M29.4,21.5C29.3,21.5,29.3,21.5,29.4,21.5l0.3,0.3
				c0,0,0.1,0,0.1,0l2-1.2c0,0,0-0.1,0-0.1l-0.3-0.2c0,0-0.1,0-0.1,0L29.4,21.5z"/>
			<path id="Body_7_" fill="#B2B2B2" stroke="#575756" stroke-miterlimit="10" d="M28.5,20.6l-6.2,3.6l6.3,3.6l6.2-3.6L28.5,20.6
				L28.5,20.6z M27.3,25c-0.7-0.4-0.7-1,0-1.4c0.7-0.4,1.8-0.4,2.5,0c0.7,0.4,0.7,1,0,1.4C29.1,25.4,28,25.4,27.3,25z"/>
			<path fill="#B2B2B2" stroke="#575756" stroke-miterlimit="10" d="M23.7,27.2c0,0,0.1,0,0.1,0l2-1.2c0,0,0-0.1,0-0.1l-0.3-0.2
				c0,0-0.1,0-0.1,0l-2,1.2c0,0,0,0.1,0,0.1L23.7,27.2L23.7,27.2z"/>
			<path fill="#B2B2B2" stroke="#575756" stroke-miterlimit="10" d="M22,26.2c0,0,0.1,0,0.1,0l2-1.2c0,0,0-0.1,0-0.1l-0.3-0.2
				c0,0-0.1,0-0.1,0l-2,1.2c0,0,0,0.1,0,0.1L22,26.2L22,26.2z"/>
			<path fill="#B2B2B2" stroke="#575756" stroke-miterlimit="10" d="M27.5,27C27.5,27,27.5,26.9,27.5,27l-0.3-0.3c0,0-0.1,0-0.1,0
				l-2,1.2c0,0,0,0.1,0,0.1l0.3,0.2c0,0,0.1,0,0.1,0L27.5,27z"/>
		</g>
		<g>
			<polygon opacity="0.4" fill="#B2B2B2" points="43.1,69.4 43.1,64.3 52.5,69.8 52.5,74.6 			"/>
			<path fill="#575756" d="M43.6,65.1l8.5,4.9v3.7l-8.5-4.7V65.1 M42.6,63.4v6.3L53,75.5v-6L42.6,63.4L42.6,63.4z"/>
		</g>
		<g>
			<polygon opacity="0.4" fill="#B2B2B2" points="34,64.1 34,59.2 41,63.1 41,68.2 			"/>
			<path fill="#575756" d="M34.5,60.1l6,3.4v3.9l-6-3.5V60.1 M33.5,58.4v6l8,4.6v-6.2L33.5,58.4L33.5,58.4z"/>
		</g>
		<g>
			<path opacity="0.4" fill="#B2B2B2" d="M42,63.1L42,63.1l0,5.1l0,0V63.1z M43.9,62L43.9,62l-1.1,0.6L43.9,62z"/>
			<polygon fill="#575756" points="44.4,61.2 41.5,62.9 41.5,69.1 42.6,68.5 42.6,63.4 44.4,62.4 44.4,61.2 			"/>
		</g>
		<g>
			<polygon opacity="0.4" fill="#B2B2B2" points="34.5,58.3 36.5,57.1 43.5,61.2 41.5,62.3 			"/>
			<path fill="#575756" d="M36.5,57.7l6,3.5l-0.9,0.5l-6.1-3.4L36.5,57.7 M36.5,56.5l-3,1.9l8,4.5l2.9-1.7L36.5,56.5L36.5,56.5z"/>
		</g>
		<g>
			<polygon opacity="0.4" fill="#B2B2B2" points="43.6,63.4 45.6,62.3 54.9,67.8 53,68.9 			"/>
			<path fill="#575756" d="M45.6,62.9l8.3,4.9L53,68.3l-8.4-4.9L45.6,62.9 M45.6,61.8l-3.1,1.6L53,69.5l2.9-1.7L45.6,61.8L45.6,61.8
				z"/>
		</g>
	</g>
	<polygon fill="#B2B2B2" fill-opacity="0.2" stroke="#575756" stroke-linejoin="round" stroke-miterlimit="10" points="32.1,40.8 
		16.6,50 16.5,58.1 32.2,48.8 	"/>
	<polygon fill="#B2B2B2" fill-opacity="0.4" stroke="#575756" stroke-linejoin="round" stroke-miterlimit="10" points="32.1,40.8 
		22,35 6.6,44.3 16.6,50 	"/>
	<polygon fill="#B2B2B2" fill-opacity="0.4" stroke="#575756" stroke-linejoin="round" stroke-miterlimit="10" points="6.6,44.3 
		6.6,52.1 16.5,58.1 16.6,50 	"/>
	<polygon fill="#B2B2B2" fill-opacity="0.4" stroke="#575756" stroke-miterlimit="10" points="7.7,46.2 7.7,50.2 8.7,51.1 8.6,51.7 
		9.6,52.4 9.6,53 12.2,54.5 12.4,54 13.3,54.6 13.7,53.8 15.3,54.8 15.3,50.6 	"/>
	<polygon fill="#B2B2B2" fill-opacity="0.4" stroke="#575756" stroke-miterlimit="10" points="46.3,16 42.1,13.6 46.2,11.2 
		50.5,13.6 	"/>
	<polygon fill="#B2B2B2" fill-opacity="0.4" stroke="#575756" stroke-miterlimit="10" points="51.4,19.4 47.2,17 51.3,14.6 55.6,17 
			"/>
</g>
</svg>
