<?xml version="1.0" encoding="utf-8"?>
<!-- Generator: Adobe Illustrator 19.1.0, SVG Export Plug-In . SVG Version: 6.00 Build 0)  -->
<!DOCTYPE svg PUBLIC "-//W3C//DTD SVG 1.1//EN" "http://www.w3.org/Graphics/SVG/1.1/DTD/svg11.dtd">
<svg version="1.1" id="Layer_1" xmlns="http://www.w3.org/2000/svg" xmlns:xlink="http://www.w3.org/1999/xlink" x="0px" y="0px"
	 width="862.1px" height="547.9px" viewBox="0 0 862.1 547.9" enable-background="new 0 0 862.1 547.9" xml:space="preserve">
<symbol  id="iot-man" viewBox="-34 -35.1 68 70.1">
	<path fill="#FFFFFF" d="M32.7-9H21v6h11.5c1,0,1.5,0.6,1.5,1.6v2.1c0,1-0.5,1.3-1.5,1.3H21v6h11.5c1,0,1.5,1,1.5,2v2.1
		c0,1-0.5,1.9-1.5,1.9H21v7h-7v12.6c0,1-0.5,1.4-1.5,1.4h-2.1c-1,0-1.5-0.5-1.5-1.4V21H3v12.4c0,1-1.1,1.6-2,1.6h-2.1
		c-1,0-1.9-0.6-1.9-1.6V21h-6v12.4c0,1-0.5,1.6-1.5,1.6h-2.1c-1,0-1.5-0.6-1.5-1.6V21h-7v-7h-11.5c-1,0-1.5-0.5-1.5-1.5v-2.1
		c0-1,0.5-1.5,1.5-1.5H-21V2h-11.7c-1,0-1.3-0.4-1.3-1.3v-2.1c0-1,0.4-1.6,1.3-1.6H-21v-6h-11.7c-1,0-1.3-0.8-1.3-1.8v-2.1
		c0-1,0.4-2.2,1.3-2.2H-21v-6h7v-12.6c0-0.1-0.1-0.2-0.1-0.3l1.4-1.3c0.1,0,0.1,0.1,0.2,0.1h2.1c1,0,1.5,0.5,1.5,1.4V-21h6v-12.6
		c0-1,0.9-1.4,1.9-1.4H1c1,0,2,0.5,2,1.4V-21h6v-12.4c0-1,0.5-1.6,1.5-1.6h2.1c1,0,1.5,0.6,1.5,1.6V-21h7v7h11.7
		c1,0,1.3,0.6,1.3,1.6v2.1C34-9.3,33.6-9,32.7-9z M-0.1-8.7c-4.6,0-8.3,3.7-8.3,8.3s3.7,8.3,8.3,8.3s8.3-3.7,8.3-8.3
		S4.5-8.7-0.1-8.7z"/>
	<polygon display="none" fill="none" points="-34,35 34,35 34,-35 -34,-35 	"/>
</symbol>
<g opacity="0.2">
	<defs>
		<rect id="SVGID_47_" opacity="0.2" width="862.1" height="547.9"/>
	</defs>
	<clipPath id="SVGID_2_">
		<use xlink:href="#SVGID_47_"  overflow="visible"/>
	</clipPath>
	<polygon clip-path="url(#SVGID_2_)" fill="#6D7777" points="315.5,273.9 355.7,273.9 353,285.4 347.2,291 337.9,294.4 331.1,294 
		324,291 319.1,286.6 315,278.4 	"/>
	<path clip-path="url(#SVGID_2_)" fill="#6D7777" d="M419.8,188.2h17.9v18.2c0,0-0.6,0.7-1.6,0.8s-3.3,0-3.3,0l-10.3-7.2l-3.8-7.8
		v-3.9H419.8z"/>
	<path clip-path="url(#SVGID_2_)" fill="#6D7777" d="M457.6,186.3h-17.9v-18.2c0,0,0.6-0.7,1.6-0.8s3.3,0,3.3,0l10.3,7.2l3.8,7.8
		v3.9H457.6z"/>
	<polyline clip-path="url(#SVGID_2_)" fill="none" stroke="#601346" stroke-width="2" points="235.7,-29.7 235.7,121.8 288.1,121.8 
		288.1,-29.8 	"/>
	<line clip-path="url(#SVGID_2_)" fill="none" stroke="#601346" stroke-width="2" x1="288.1" y1="76.1" x2="261.9" y2="76.1"/>
	<line clip-path="url(#SVGID_2_)" fill="none" stroke="#601346" stroke-width="2" x1="288.1" y1="52.4" x2="275" y2="52.4"/>
	<line clip-path="url(#SVGID_2_)" fill="none" stroke="#601346" stroke-width="2" x1="288.1" y1="30.4" x2="261.9" y2="30.4"/>
	<line clip-path="url(#SVGID_2_)" fill="none" stroke="#601346" stroke-width="2" x1="288.1" y1="6.7" x2="275" y2="6.7"/>
	<circle clip-path="url(#SVGID_2_)" fill="none" stroke="#601346" stroke-width="2" cx="58.5" cy="203.1" r="9"/>
	<circle clip-path="url(#SVGID_2_)" fill="none" stroke="#601346" stroke-width="2" cx="58.5" cy="176.6" r="9"/>
	<circle clip-path="url(#SVGID_2_)" fill="#601346" stroke="#601346" stroke-width="2" cx="58.5" cy="150.1" r="9"/>
	<polyline clip-path="url(#SVGID_2_)" fill="none" stroke="#601346" stroke-width="2" points="-0.5,61.2 78.2,61.2 117.5,83.9 
		78.2,106.6 -0.6,106.6 	"/>
	<polyline clip-path="url(#SVGID_2_)" fill="none" stroke="#601346" stroke-width="2" points="78.2,61.2 65.1,83.9 78.2,106.6 	"/>
	<polygon clip-path="url(#SVGID_2_)" fill="#601346" points="90.9,67.8 90.9,99.3 117.5,83.9 	"/>
	<line clip-path="url(#SVGID_2_)" fill="none" stroke="#601346" stroke-width="2" x1="65.1" y1="83.9" x2="-0.6" y2="83.9"/>
	<polyline clip-path="url(#SVGID_2_)" fill="none" stroke="#3A0B2E" stroke-width="2" stroke-linejoin="bevel" points="806.8,288.4 
		681.9,288.4 603.1,333.9 681.9,379.4 838.6,379.4 813.1,394.5 681.9,394.5 603.1,349.1 590,349.1 590,380.7 	"/>
	<polyline clip-path="url(#SVGID_2_)" fill="none" stroke="#601346" stroke-width="2" points="681.9,288.4 701.6,311.2 681.8,333.9 
		681.8,334.1 701.6,355.9 681.8,378.6 	"/>
	<polygon clip-path="url(#SVGID_2_)" fill="#601346" points="633.5,351.9 633.5,316 603.1,333.5 	"/>
	<line clip-path="url(#SVGID_2_)" fill="none" stroke="#601346" stroke-width="2" x1="701.6" y1="311.2" x2="867.4" y2="311.2"/>
	<line clip-path="url(#SVGID_2_)" fill="none" stroke="#601346" stroke-width="2" x1="701.6" y1="355.9" x2="793.4" y2="355.9"/>
	<polyline clip-path="url(#SVGID_2_)" fill="none" stroke="#601346" stroke-width="2" points="-0.5,46 51.9,46 65.1,38.5 51.9,30.9 
		51.9,0.5 65.1,-7 51.9,-14.6 -0.6,-14.6 	"/>
	<polyline clip-path="url(#SVGID_2_)" fill="none" stroke="#601346" stroke-width="2" points="104.4,-14.6 78.2,-14.6 78.2,0.6 
		65.1,8.1 65.1,23.3 78.2,30.9 78.2,46 104.4,46 109,46 109,51.3 	"/>
	<rect x="32.3" y="130.3" clip-path="url(#SVGID_2_)" fill="none" stroke="#601346" stroke-width="2" width="52.5" height="90.9"/>
	<path clip-path="url(#SVGID_2_)" fill="none" stroke="#601346" stroke-width="2" d="M530.5,103.7h-27.2
		c-14.2,0-25.7,11.5-25.7,25.7c0,14.2,11.5,25.7,25.7,25.7h28"/>
	<path clip-path="url(#SVGID_2_)" fill="none" stroke="#601346" stroke-width="2" d="M516.9,103.7c-14.2,0-25.7,11.5-25.7,25.7
		c0,14.2,11.5,25.7,25.7,25.7"/>
	<circle clip-path="url(#SVGID_2_)" fill="none" stroke="#601346" stroke-width="2" cx="530.5" cy="129.4" r="25.7"/>
	<g clip-path="url(#SVGID_2_)">
		<g>
			<path fill="#601346" d="M155.9,187.6c-11.5,0-22.3-4.5-30.5-12.6c-16.8-16.8-16.8-44.1,0-61c3-3,6.4-5.5,10.2-7.5l0.3-0.1l0-120
				l20.1-20.1l20.1,20.1v89.4l-7.1,7.1l7.1,7.1l0,16.5l0.3,0.1c3.8,2,7.2,4.5,10.2,7.5c16.8,16.8,16.8,44.1,0,61
				C178.2,183.1,167.4,187.6,155.9,187.6z M137.4,109.8c-3.4,1.8-6.5,4.1-9.3,6.9c-7.4,7.4-11.5,17.3-11.5,27.8s4.1,20.4,11.5,27.8
				c7.4,7.4,17.3,11.5,27.8,11.5s20.4-4.1,27.8-11.5s11.5-17.3,11.5-27.8c0-10.5-4.1-20.4-11.5-27.8c-2.7-2.7-5.8-5-9.3-6.9
				l-2.3-1.2l0-17.2l-8.7-8.7l8.7-8.7l0-86.2l-16.2-16.2L139.7-12l0,120.7L137.4,109.8z"/>
			<path fill="#FFFFFF" d="M155.9-33l19.6,19.6v89l-6.6,6.6l-0.7,0.7l0.7,0.7l6.6,6.6l0,15.9l0,0.6l0.5,0.3c3.7,2,7.1,4.5,10,7.4
				c8,8,12.5,18.7,12.5,30.1s-4.4,22.1-12.5,30.1c-8,8-18.7,12.5-30.1,12.5c-11.4,0-22.1-4.4-30.1-12.5c-8-8-12.5-18.7-12.5-30.1
				s4.4-22.1,12.5-30.1c3-3,6.3-5.5,10-7.4l0.5-0.3V106l0-119.4L155.9-33 M139.2,108.3l-2,1.1c-3.5,1.8-6.6,4.2-9.4,6.9
				c-7.5,7.5-11.6,17.5-11.6,28.1c0,10.6,4.1,20.6,11.6,28.1c7.5,7.5,17.5,11.6,28.1,11.6c10.6,0,20.6-4.1,28.1-11.6
				c15.5-15.5,15.5-40.7,0-56.2c-2.8-2.8-5.9-5.1-9.4-6.9l-2-1.1l0-2.3l0-14.4l0-0.4l-0.3-0.3l-5.4-5.4l-2.7-2.7l2.7-2.7l5.4-5.4
				l0.3-0.3v-0.4l0-85.8v-0.4l-0.3-0.3l-15.7-15.7l-0.7-0.7l-0.7,0.7l-15.7,15.7l-0.3,0.3v0.4l0,117.9L139.2,108.3 M155.9-34.4
				l-20.6,20.6l0,119.9c-3.7,2-7.2,4.5-10.3,7.6c-17,17-17,44.6,0,61.7c8.5,8.5,19.7,12.8,30.8,12.8c11.2,0,22.3-4.3,30.8-12.8
				c17-17,17-44.6,0-61.7c-3.1-3.1-6.6-5.6-10.3-7.6l0-16.4l-6.9-6.9l6.9-6.9v-89.8L155.9-34.4L155.9-34.4z M155.9,183.2
				c-9.9,0-19.8-3.8-27.4-11.3c-15.1-15.1-15.1-39.7,0-54.8c2.7-2.7,5.8-5,9.1-6.8l2.6-1.4l0-2.9l0-117.9l15.7-15.7l15.7,15.7
				l0,85.8l-5.4,5.4l-3.4,3.4l3.4,3.4l5.4,5.4l0,14.4l0,2.9l2.6,1.4c3.4,1.8,6.4,4.1,9.1,6.8c15.1,15.1,15.1,39.7,0,54.8
				C175.7,179.4,165.8,183.2,155.9,183.2L155.9,183.2z"/>
		</g>
		<g>
			<path fill="#601346" d="M155.9,167.3c-2.5,0-4.8-1-6.5-2.7c-3.6-3.6-3.6-9.4,0-13c1.7-1.7,4-2.7,6.5-2.7s4.8,1,6.5,2.7
				c3.6,3.6,3.6,9.4,0,13C160.7,166.4,158.3,167.3,155.9,167.3z"/>
			<path fill="#FFFFFF" d="M155.9,149.5c2.3,0,4.5,0.9,6.1,2.5c1.6,1.6,2.5,3.8,2.5,6.1c0,2.3-0.9,4.5-2.5,6.1
				c-1.6,1.6-3.8,2.5-6.1,2.5c-2.3,0-4.5-0.9-6.1-2.5c-1.6-1.6-2.5-3.8-2.5-6.1c0-2.3,0.9-4.5,2.5-6.1
				C151.4,150.4,153.6,149.5,155.9,149.5 M155.9,148.5c-2.5,0-5,0.9-6.9,2.8c-3.8,3.8-3.8,9.9,0,13.7c1.9,1.9,4.4,2.8,6.9,2.8
				s5-0.9,6.9-2.8c3.8-3.8,3.8-9.9,0-13.7C160.9,149.4,158.4,148.5,155.9,148.5L155.9,148.5z"/>
		</g>
		<g>
			<rect x="154" y="-6.5" fill="#601346" width="3.8" height="75.1"/>
			<path fill="#FFFFFF" d="M157.3-6v74.1h-2.8V-6H157.3 M158.3-7h-4.8v76.1h4.8V-7L158.3-7z"/>
		</g>
	</g>
	<polyline clip-path="url(#SVGID_2_)" fill="none" stroke="#601346" stroke-width="2" points="11.9,250.8 261.9,250.8 261.9,356.7 
		10.9,356.7 	"/>
	<rect x="35.7" y="261" clip-path="url(#SVGID_2_)" fill="none" stroke="#601346" stroke-width="2" width="126" height="12.3"/>
	<rect x="170" y="261" clip-path="url(#SVGID_2_)" fill="none" stroke="#601346" stroke-width="2" width="13.1" height="12.3"/>
	<rect x="4" y="279.5" clip-path="url(#SVGID_2_)" fill="none" stroke="#601346" stroke-width="2" width="13.1" height="12.3"/>
	<rect x="83.3" y="279.5" clip-path="url(#SVGID_2_)" fill="none" stroke="#601346" stroke-width="2" width="13.1" height="12.3"/>
	<rect x="23.8" y="279.5" clip-path="url(#SVGID_2_)" fill="none" stroke="#601346" stroke-width="2" width="13.1" height="12.3"/>
	<rect x="43.6" y="279.5" clip-path="url(#SVGID_2_)" fill="none" stroke="#601346" stroke-width="2" width="13.1" height="12.3"/>
	<rect x="63.5" y="279.5" clip-path="url(#SVGID_2_)" fill="none" stroke="#601346" stroke-width="2" width="13.1" height="12.3"/>
	<rect x="103.1" y="279.5" clip-path="url(#SVGID_2_)" fill="none" stroke="#601346" stroke-width="2" width="13.1" height="12.3"/>
	<rect x="182.4" y="279.5" clip-path="url(#SVGID_2_)" fill="none" stroke="#601346" stroke-width="2" width="13.1" height="12.3"/>
	<rect x="122.9" y="279.5" clip-path="url(#SVGID_2_)" fill="none" stroke="#601346" stroke-width="2" width="13.1" height="12.3"/>
	<rect x="142.7" y="279.5" clip-path="url(#SVGID_2_)" fill="none" stroke="#601346" stroke-width="2" width="13.1" height="12.3"/>
	<rect x="162.6" y="279.5" clip-path="url(#SVGID_2_)" fill="none" stroke="#601346" stroke-width="2" width="13.1" height="12.3"/>
	<rect x="4" y="315.6" clip-path="url(#SVGID_2_)" fill="none" stroke="#601346" stroke-width="2" width="13.1" height="12.3"/>
	<rect x="83.3" y="315.6" clip-path="url(#SVGID_2_)" fill="none" stroke="#601346" stroke-width="2" width="13.1" height="12.3"/>
	<rect x="23.8" y="315.6" clip-path="url(#SVGID_2_)" fill="none" stroke="#601346" stroke-width="2" width="13.1" height="12.3"/>
	<rect x="43.6" y="315.6" clip-path="url(#SVGID_2_)" fill="none" stroke="#601346" stroke-width="2" width="13.1" height="12.3"/>
	<rect x="63.5" y="315.6" clip-path="url(#SVGID_2_)" fill="none" stroke="#601346" stroke-width="2" width="13.1" height="12.3"/>
	<rect x="103.1" y="315.6" clip-path="url(#SVGID_2_)" fill="none" stroke="#601346" stroke-width="2" width="13.1" height="12.3"/>
	<rect x="182.4" y="315.6" clip-path="url(#SVGID_2_)" fill="none" stroke="#601346" stroke-width="2" width="13.1" height="12.3"/>
	<rect x="202.9" y="315.6" clip-path="url(#SVGID_2_)" fill="none" stroke="#601346" stroke-width="2" width="13.1" height="12.3"/>
	<rect x="122.9" y="315.6" clip-path="url(#SVGID_2_)" fill="none" stroke="#601346" stroke-width="2" width="13.1" height="12.3"/>
	<rect x="142.7" y="315.6" clip-path="url(#SVGID_2_)" fill="none" stroke="#601346" stroke-width="2" width="13.1" height="12.3"/>
	<rect x="162.6" y="315.6" clip-path="url(#SVGID_2_)" fill="none" stroke="#601346" stroke-width="2" width="13.1" height="12.3"/>
	<rect x="14" y="297.4" clip-path="url(#SVGID_2_)" fill="none" stroke="#601346" stroke-width="2" width="13.1" height="12.3"/>
	<rect x="93.3" y="297.4" clip-path="url(#SVGID_2_)" fill="none" stroke="#601346" stroke-width="2" width="13.1" height="12.3"/>
	<rect x="33.8" y="297.4" clip-path="url(#SVGID_2_)" fill="none" stroke="#601346" stroke-width="2" width="13.1" height="12.3"/>
	<rect x="53.6" y="297.4" clip-path="url(#SVGID_2_)" fill="none" stroke="#601346" stroke-width="2" width="13.1" height="12.3"/>
	<rect x="73.5" y="297.4" clip-path="url(#SVGID_2_)" fill="none" stroke="#601346" stroke-width="2" width="13.1" height="12.3"/>
	<rect x="113.1" y="297.4" clip-path="url(#SVGID_2_)" fill="none" stroke="#601346" stroke-width="2" width="13.1" height="12.3"/>
	<rect x="192.4" y="297.4" clip-path="url(#SVGID_2_)" fill="none" stroke="#601346" stroke-width="2" width="13.1" height="12.3"/>
	<rect x="132.9" y="297.4" clip-path="url(#SVGID_2_)" fill="none" stroke="#601346" stroke-width="2" width="13.1" height="12.3"/>
	<rect x="152.7" y="297.4" clip-path="url(#SVGID_2_)" fill="none" stroke="#601346" stroke-width="2" width="13.1" height="12.3"/>
	<rect x="172.6" y="297.4" clip-path="url(#SVGID_2_)" fill="none" stroke="#601346" stroke-width="2" width="13.1" height="12.3"/>
	<rect x="14" y="333.9" clip-path="url(#SVGID_2_)" fill="none" stroke="#601346" stroke-width="2" width="13.1" height="12.3"/>
	<rect x="93.3" y="333.9" clip-path="url(#SVGID_2_)" fill="none" stroke="#601346" stroke-width="2" width="13.1" height="12.3"/>
	<rect x="33.8" y="333.9" clip-path="url(#SVGID_2_)" fill="none" stroke="#601346" stroke-width="2" width="13.1" height="12.3"/>
	<rect x="53.6" y="333.9" clip-path="url(#SVGID_2_)" fill="none" stroke="#601346" stroke-width="2" width="13.1" height="12.3"/>
	<rect x="73.5" y="333.9" clip-path="url(#SVGID_2_)" fill="none" stroke="#601346" stroke-width="2" width="13.1" height="12.3"/>
	<rect x="113.1" y="333.9" clip-path="url(#SVGID_2_)" fill="none" stroke="#601346" stroke-width="2" width="13.1" height="12.3"/>
	<rect x="192.4" y="333.9" clip-path="url(#SVGID_2_)" fill="none" stroke="#601346" stroke-width="2" width="13.1" height="12.3"/>
	<rect x="132.9" y="333.9" clip-path="url(#SVGID_2_)" fill="none" stroke="#601346" stroke-width="2" width="13.1" height="12.3"/>
	<rect x="152.7" y="333.9" clip-path="url(#SVGID_2_)" fill="none" stroke="#601346" stroke-width="2" width="13.1" height="12.3"/>
	<rect x="172.6" y="333.9" clip-path="url(#SVGID_2_)" fill="none" stroke="#601346" stroke-width="2" width="13.1" height="12.3"/>
	<rect x="232.4" y="333.9" clip-path="url(#SVGID_2_)" fill="none" stroke="#601346" stroke-width="2" width="13.1" height="12.3"/>
	<rect x="212.6" y="333.9" clip-path="url(#SVGID_2_)" fill="none" stroke="#601346" stroke-width="2" width="13.1" height="12.3"/>
	<rect x="189.7" y="261" clip-path="url(#SVGID_2_)" fill="none" stroke="#601346" stroke-width="2" width="13.1" height="12.3"/>
	<rect x="209.4" y="261" clip-path="url(#SVGID_2_)" fill="none" stroke="#601346" stroke-width="2" width="13.1" height="12.3"/>
	<rect x="229.1" y="261" clip-path="url(#SVGID_2_)" fill="none" stroke="#601346" stroke-width="2" width="16.5" height="12.3"/>
	<rect x="222.6" y="315.6" clip-path="url(#SVGID_2_)" fill="none" stroke="#601346" stroke-width="2" width="23" height="12.3"/>
	<rect x="212.6" y="297.6" clip-path="url(#SVGID_2_)" fill="none" stroke="#601346" stroke-width="2" width="33" height="12.3"/>
	<rect x="202.8" y="279.5" clip-path="url(#SVGID_2_)" fill="none" stroke="#601346" stroke-width="2" width="42.7" height="12.3"/>
	<rect x="6" y="261" clip-path="url(#SVGID_2_)" fill="none" stroke="#601346" stroke-width="2" width="19.7" height="12.3"/>
	<path clip-path="url(#SVGID_2_)" fill="none" stroke="#601346" stroke-width="2" d="M432.7-19.2h57.1c30.9,0,55.9,25,55.9,55.9v0
		c0,30.9-25,55.9-55.9,55.9h-57.1c-30.9,0-55.9-25-55.9-55.9v0C376.8,5.8,401.8-19.2,432.7-19.2z"/>
	<line clip-path="url(#SVGID_2_)" fill="none" stroke="#601346" stroke-width="2" x1="439.1" y1="-16.9" x2="439.1" y2="91.5"/>
	<polyline clip-path="url(#SVGID_2_)" fill="none" stroke="#601346" stroke-width="2" points="439.1,38.5 301.3,38.5 301.3,8.1 
		353.8,8.1 353.8,-25.9 	"/>
	<g clip-path="url(#SVGID_2_)">
		<rect x="471.9" y="242.2" fill="none" stroke="#601346" stroke-width="2" width="52.5" height="52.5"/>
		<circle fill="#601346" cx="482.6" cy="252.9" r="3.4"/>
		<circle fill="#601346" cx="513.6" cy="252.9" r="3.4"/>
		<circle fill="#601346" cx="482.6" cy="283.4" r="3.4"/>
		<circle fill="#601346" cx="513.6" cy="283.4" r="3.4"/>
	</g>
	<g clip-path="url(#SVGID_2_)">
		<rect x="566.9" y="493" fill="none" stroke="#601346" stroke-width="2" width="69" height="69"/>
		<circle fill="#601346" cx="577.7" cy="503.7" r="3.4"/>
		<circle fill="#601346" cx="626.2" cy="503.7" r="3.4"/>
	</g>
	<rect x="301.3" y="49" clip-path="url(#SVGID_2_)" fill="none" stroke="#601346" stroke-width="2" width="52.5" height="52.5"/>
	<circle clip-path="url(#SVGID_2_)" fill="#601346" cx="312" cy="59.7" r="3.4"/>
	<circle clip-path="url(#SVGID_2_)" fill="#601346" cx="343" cy="59.7" r="3.4"/>
	<circle clip-path="url(#SVGID_2_)" fill="#601346" cx="312" cy="90.2" r="3.4"/>
	<circle clip-path="url(#SVGID_2_)" fill="#601346" cx="343" cy="90.2" r="3.4"/>
	<rect x="8.6" y="369" clip-path="url(#SVGID_2_)" fill="none" stroke="#601346" stroke-width="2" width="102.4" height="57.4"/>
	<circle clip-path="url(#SVGID_2_)" fill="#601346" cx="17.4" cy="377.2" r="3.4"/>
	<circle clip-path="url(#SVGID_2_)" fill="#601346" cx="98.8" cy="377.2" r="3.4"/>
	<circle clip-path="url(#SVGID_2_)" fill="#601346" cx="17.4" cy="418.2" r="3.4"/>
	<circle clip-path="url(#SVGID_2_)" fill="#601346" cx="98.8" cy="418.2" r="3.4"/>
	<rect x="10.9" y="468.3" clip-path="url(#SVGID_2_)" fill="none" stroke="#601346" stroke-width="2" width="198.5" height="28"/>
	<line clip-path="url(#SVGID_2_)" fill="none" stroke="#601346" stroke-width="2" x1="70" y1="495.9" x2="70" y2="469.3"/>
	<line clip-path="url(#SVGID_2_)" fill="none" stroke="#601346" stroke-width="2" x1="199" y1="469.3" x2="199" y2="495.9"/>
	
		<rect x="209.4" y="475.5" clip-path="url(#SVGID_2_)" fill="#601346" stroke="#601346" stroke-width="2" width="29.7" height="12.8"/>
	<line clip-path="url(#SVGID_2_)" fill="#601346" stroke="#601346" stroke-width="2" x1="216" y1="465.9" x2="216" y2="497.9"/>
	<line clip-path="url(#SVGID_2_)" fill="#601346" stroke="#601346" stroke-width="2" x1="223.9" y1="469.7" x2="223.9" y2="494.1"/>
	<line clip-path="url(#SVGID_2_)" fill="#601346" stroke="#601346" stroke-width="2" x1="231.9" y1="471.5" x2="231.9" y2="492.4"/>
	<line clip-path="url(#SVGID_2_)" fill="#601346" stroke="#601346" stroke-width="2" x1="248.8" y1="481.9" x2="239.5" y2="481.9"/>
	<polyline clip-path="url(#SVGID_2_)" fill="none" stroke="#601346" stroke-width="2" points="87.6,427.3 87.6,447.6 231,447.6 	"/>
	<polyline clip-path="url(#SVGID_2_)" fill="none" stroke="#601346" stroke-width="2" points="9.5,442.4 70,442.4 70,426.4 	"/>
	<line clip-path="url(#SVGID_2_)" fill="none" stroke="#601346" stroke-width="2" x1="69.3" y1="455.2" x2="7.8" y2="455.2"/>
	<polyline clip-path="url(#SVGID_2_)" fill="none" stroke="#601346" stroke-width="2" points="301.3,576 301.3,450.3 406.3,450.3 
		439.2,483.2 439.2,580.2 	"/>
	<polyline clip-path="url(#SVGID_2_)" fill="none" stroke="#601346" stroke-width="2" points="406.3,451.8 406.3,485.4 439.2,485.4 
			"/>
	<line clip-path="url(#SVGID_2_)" fill="none" stroke="#601346" stroke-width="2" x1="323.9" y1="467.8" x2="384.9" y2="467.8"/>
	<line clip-path="url(#SVGID_2_)" fill="none" stroke="#601346" stroke-width="2" x1="323.9" y1="486.3" x2="384.9" y2="486.3"/>
	<line clip-path="url(#SVGID_2_)" fill="none" stroke="#601346" stroke-width="2" x1="323.9" y1="504.1" x2="418.2" y2="504.1"/>
	<line clip-path="url(#SVGID_2_)" fill="none" stroke="#601346" stroke-width="2" x1="323.9" y1="522.1" x2="418.2" y2="522.1"/>
	<rect x="485" y="436.1" clip-path="url(#SVGID_2_)" fill="none" stroke="#601346" stroke-width="2" width="91.9" height="31.7"/>
	<polyline clip-path="url(#SVGID_2_)" fill="none" stroke="#601346" stroke-width="2" points="486,468.6 486,481.8 510.2,481.8 
		510.2,576.4 	"/>
	<polyline clip-path="url(#SVGID_2_)" fill="none" stroke="#601346" stroke-width="2" points="574.8,468.6 574.8,481.8 550.6,481.8 
		550.6,576.4 	"/>
	<circle clip-path="url(#SVGID_2_)" fill="none" stroke="#601346" stroke-width="2" cx="531.1" cy="541.1" r="10"/>
	<polyline clip-path="url(#SVGID_2_)" fill="none" stroke="#601346" stroke-width="2" points="488.6,434.5 488.6,350.3 509.7,350.3 
		509.7,436.1 	"/>
	<polyline clip-path="url(#SVGID_2_)" fill="none" stroke="#601346" stroke-width="2" points="499.1,435.3 499.1,365.3 508.2,355.5 
		508.2,350.3 	"/>
	<polyline clip-path="url(#SVGID_2_)" fill="none" stroke="#601346" stroke-width="2" points="499.1,435.3 499.1,365.3 490,355.5 
		490,350.3 	"/>
	<polygon clip-path="url(#SVGID_2_)" fill="#601346" points="499.2,363.1 508.2,354.6 505.9,350.9 491.4,350.3 490,354.4 	"/>
	<polyline clip-path="url(#SVGID_2_)" fill="none" stroke="#601346" stroke-width="2" points="509.7,434.5 509.7,350.3 530.9,350.3 
		530.9,436.1 	"/>
	<polyline clip-path="url(#SVGID_2_)" fill="none" stroke="#601346" stroke-width="2" points="520.3,435.3 520.3,365.3 529.4,355.5 
		529.4,350.3 	"/>
	<polyline clip-path="url(#SVGID_2_)" fill="none" stroke="#601346" stroke-width="2" points="520.3,435.3 520.3,365.3 511.2,355.5 
		511.2,350.3 	"/>
	<polygon clip-path="url(#SVGID_2_)" fill="#601346" points="520.4,363.1 529.4,354.6 527.1,350.9 512.5,350.3 511.2,354.4 	"/>
	<polyline clip-path="url(#SVGID_2_)" fill="none" stroke="#601346" stroke-width="2" points="530.9,434.5 530.9,350.3 552,350.3 
		552,436.1 	"/>
	<polyline clip-path="url(#SVGID_2_)" fill="none" stroke="#601346" stroke-width="2" points="541.4,435.3 541.4,365.3 550.5,355.5 
		550.5,350.3 	"/>
	<polyline clip-path="url(#SVGID_2_)" fill="none" stroke="#601346" stroke-width="2" points="541.4,435.3 541.4,365.3 532.3,355.5 
		532.3,350.3 	"/>
	<polygon clip-path="url(#SVGID_2_)" fill="#601346" points="541.5,363.1 550.5,354.6 548.2,350.9 533.7,350.3 532.3,354.4 	"/>
	<polyline clip-path="url(#SVGID_2_)" fill="none" stroke="#601346" stroke-width="2" points="552,434.5 552,350.3 573.2,350.3 
		573.2,436.1 	"/>
	<polyline clip-path="url(#SVGID_2_)" fill="none" stroke="#601346" stroke-width="2" points="562.6,435.3 562.6,365.3 571.7,355.5 
		571.7,350.3 	"/>
	<polyline clip-path="url(#SVGID_2_)" fill="none" stroke="#601346" stroke-width="2" points="562.6,435.3 562.6,365.3 553.5,355.5 
		553.5,350.3 	"/>
	<polygon clip-path="url(#SVGID_2_)" fill="#601346" points="562.7,363.1 571.7,354.6 569.4,350.9 554.8,350.3 553.5,354.4 	"/>
	<line clip-path="url(#SVGID_2_)" fill="none" stroke="#601346" stroke-width="2" x1="279.2" y1="523.3" x2="279.2" y2="578.9"/>
	<line clip-path="url(#SVGID_2_)" fill="none" stroke="#601346" stroke-width="2" x1="248.4" y1="523.3" x2="248.4" y2="578.9"/>
	<line clip-path="url(#SVGID_2_)" fill="none" stroke="#601346" stroke-width="2" x1="216.9" y1="523.3" x2="216.9" y2="578.9"/>
	<line clip-path="url(#SVGID_2_)" fill="none" stroke="#601346" stroke-width="2" x1="186.1" y1="523.3" x2="186.1" y2="578.9"/>
	<rect x="134.8" y="509.4" clip-path="url(#SVGID_2_)" fill="#601346" width="21.4" height="21.4"/>
	<rect x="30.5" y="509.4" clip-path="url(#SVGID_2_)" fill="#601346" width="21.4" height="21.4"/>
	<line clip-path="url(#SVGID_2_)" fill="none" stroke="#601346" stroke-width="2" x1="49.9" y1="520.8" x2="137.2" y2="520.8"/>
	<line clip-path="url(#SVGID_2_)" fill="none" stroke="#601346" stroke-width="2" x1="91.3" y1="522.1" x2="91.3" y2="578.3"/>
	<polyline clip-path="url(#SVGID_2_)" fill="none" stroke="#601346" stroke-width="2" points="193.4,-20.5 193.4,57.8 212.4,76.3 	
		"/>
	<polyline clip-path="url(#SVGID_2_)" fill="none" stroke="#601346" stroke-width="2" points="213.2,89.3 213.2,142.7 398.5,142.7 
		371.9,169.4 235.7,169.4 251.7,185.5 	"/>
	<line clip-path="url(#SVGID_2_)" fill="none" stroke="#601346" stroke-width="2" x1="386.6" y1="143.4" x2="359.9" y2="170.1"/>
	<path clip-path="url(#SVGID_2_)" fill="none" stroke="#601346" stroke-width="2" d="M315.4,142.7c7.4,0,13.3,6,13.3,13.3
		s-6,13.3-13.3,13.3"/>
	<line clip-path="url(#SVGID_2_)" fill="none" stroke="#601346" stroke-width="2" x1="290.1" y1="143.4" x2="290.1" y2="168.4"/>
	<rect x="379.3" y="109.6" clip-path="url(#SVGID_2_)" fill="#601346" width="5.2" height="16"/>
	<rect x="368" y="109.6" clip-path="url(#SVGID_2_)" fill="#601346" width="5.2" height="16"/>
	<rect x="356.8" y="109.6" clip-path="url(#SVGID_2_)" fill="#601346" width="5.2" height="16"/>
	<rect x="345.5" y="109.6" clip-path="url(#SVGID_2_)" fill="#601346" width="5.2" height="16"/>
	<rect x="334.5" y="109.6" clip-path="url(#SVGID_2_)" fill="#601346" width="5.2" height="16"/>
	<rect x="323.3" y="109.6" clip-path="url(#SVGID_2_)" fill="#601346" width="5.2" height="16"/>
	<rect x="312" y="109.6" clip-path="url(#SVGID_2_)" fill="#601346" width="5.2" height="16"/>
	<rect x="300.7" y="109.6" clip-path="url(#SVGID_2_)" fill="#601346" width="5.2" height="16"/>
	<circle clip-path="url(#SVGID_2_)" fill="none" stroke="#601346" stroke-width="2" cx="439.1" cy="186.9" r="21.2"/>
	<circle clip-path="url(#SVGID_2_)" fill="none" stroke="#601346" stroke-width="2" cx="335.6" cy="273.3" r="21.2"/>
	<polyline clip-path="url(#SVGID_2_)" fill="none" stroke="#601346" stroke-width="2" points="439.1,167.3 439.1,206.9 439.1,249.4 
		470.9,249.4 	"/>
	<polyline clip-path="url(#SVGID_2_)" fill="none" stroke="#601346" stroke-width="2" points="418.7,186.9 475.2,186.9 561.9,186.9 
			"/>
	<polyline clip-path="url(#SVGID_2_)" fill="none" stroke="#601346" stroke-width="2" points="525.7,249.4 576.9,249.4 603.1,288.5 
		524.4,288.5 	"/>
	<line clip-path="url(#SVGID_2_)" fill="none" stroke="#601346" stroke-width="2" x1="470.9" y1="288.4" x2="439.7" y2="288.4"/>
	<polyline clip-path="url(#SVGID_2_)" fill="none" stroke="#601346" stroke-width="2" points="426.4,269.3 439.7,269.3 439.7,436.1 
		393.1,394.5 393.1,273.3 314.4,273.3 	"/>
	<rect id="XMLID_37_" x="166.7" y="197.1" clip-path="url(#SVGID_2_)" fill="#601346" width="9.2" height="9.6"/>
	<rect id="XMLID_36_" x="79.3" y="235.7" clip-path="url(#SVGID_2_)" fill="#601346" width="9.2" height="9.6"/>
	<rect id="XMLID_35_" x="65.6" y="235.7" clip-path="url(#SVGID_2_)" fill="#601346" width="9.2" height="9.6"/>
	<rect id="XMLID_29_" x="52" y="235.7" clip-path="url(#SVGID_2_)" fill="#601346" width="9.2" height="9.6"/>
	<polyline clip-path="url(#SVGID_2_)" fill="none" stroke="#601346" stroke-width="2" points="167.5,201.8 155.9,201.8 119.4,237.6 
		88.5,237.6 	"/>
	<line clip-path="url(#SVGID_2_)" fill="#601346" stroke="#601346" stroke-width="2" x1="7.9" y1="188.1" x2="32.2" y2="188.1"/>
	<line clip-path="url(#SVGID_2_)" fill="#601346" stroke="#601346" stroke-width="2" x1="7.9" y1="212.7" x2="32.2" y2="212.7"/>
	<line clip-path="url(#SVGID_2_)" fill="#601346" stroke="#601346" stroke-width="2" x1="85.9" y1="212.7" x2="103.4" y2="212.7"/>
	<polyline clip-path="url(#SVGID_2_)" fill="none" stroke="#601346" stroke-width="2" points="355.2,98.2 398.5,98.2 398.5,117.6 
		460.3,117.6 460.3,142.7 417.9,142.7 391.2,168.4 391.2,249.3 	"/>
	<polyline clip-path="url(#SVGID_2_)" fill="none" stroke="#601346" stroke-width="2" points="376.8,249.3 428.2,249.3 428.2,217.8 
		391.2,217.8 	"/>
	<line clip-path="url(#SVGID_2_)" fill="none" stroke="#601346" stroke-width="2" x1="427.2" y1="233.5" x2="391.2" y2="233.5"/>
	<polyline clip-path="url(#SVGID_2_)" fill="none" stroke="#601346" stroke-width="2" points="360.3,186.3 297.1,186.3 257.4,224 
		214.4,180.2 167.5,224 	"/>
	<line clip-path="url(#SVGID_2_)" fill="none" stroke="#601346" stroke-width="2" x1="182.3" y1="231" x2="224.4" y2="191.1"/>
	<line clip-path="url(#SVGID_2_)" fill="none" stroke="#601346" stroke-width="2" x1="207.1" y1="228.2" x2="235" y2="201.7"/>
	<line clip-path="url(#SVGID_2_)" fill="none" stroke="#601346" stroke-width="2" x1="225.6" y1="229.4" x2="244.7" y2="211.3"/>
	
		<rect x="202.6" y="226.6" transform="matrix(0.7071 0.7071 -0.7071 0.7071 222.983 -78.1578)" clip-path="url(#SVGID_2_)" fill="#601346" width="6.4" height="6.9"/>
	
		<rect x="221.2" y="228.1" transform="matrix(0.7071 0.7071 -0.7071 0.7071 229.487 -90.8597)" clip-path="url(#SVGID_2_)" fill="#601346" width="6.4" height="6.9"/>
	
		<rect x="178.1" y="229.1" transform="matrix(0.7071 0.7071 -0.7071 0.7071 217.5552 -60.088)" clip-path="url(#SVGID_2_)" fill="#601346" width="6.4" height="6.9"/>
	<rect x="124.1" y="356.7" clip-path="url(#SVGID_2_)" fill="none" stroke="#601346" stroke-width="2" width="12" height="11.3"/>
	<polyline clip-path="url(#SVGID_2_)" fill="none" stroke="#601346" stroke-width="2" points="130.7,369 130.7,379.4 149.3,379.4 
		149.3,364.2 295.9,364.2 295.9,379.4 171.3,379.4 171.3,395.5 366.9,395.5 381.7,410.4 314.4,410.4 314.4,420.5 395.2,420.5 
		409.4,434.8 296.9,434.8 296.9,409.7 129.5,409.7 129.5,426.4 280.4,426.4 280.4,448.8 	"/>
	<rect x="273.9" y="448.8" clip-path="url(#SVGID_2_)" fill="none" stroke="#601346" stroke-width="2" width="13.2" height="14"/>
	<rect x="269.6" y="482.6" clip-path="url(#SVGID_2_)" fill="none" stroke="#601346" stroke-width="2" width="21.9" height="14"/>
	<rect x="269.6" y="462.8" clip-path="url(#SVGID_2_)" fill="none" stroke="#601346" stroke-width="2" width="21.9" height="33.5"/>
	<rect x="744.3" y="187.2" clip-path="url(#SVGID_2_)" fill="none" stroke="#601346" stroke-width="2" width="13.2" height="14"/>
	<rect x="740" y="221" clip-path="url(#SVGID_2_)" fill="none" stroke="#601346" stroke-width="2" width="21.9" height="14"/>
	<rect x="740" y="201.1" clip-path="url(#SVGID_2_)" fill="none" stroke="#601346" stroke-width="2" width="21.9" height="33.5"/>
	<rect x="470.4" y="211.3" clip-path="url(#SVGID_2_)" fill="none" stroke="#601346" stroke-width="2" width="8.3" height="12.9"/>
	<rect x="470.6" y="211.3" clip-path="url(#SVGID_2_)" fill="none" stroke="#601346" stroke-width="2" width="19.9" height="12.9"/>
	
		<rect x="129.5" y="387.9" clip-path="url(#SVGID_2_)" fill="#601346" stroke="#601346" stroke-width="2" width="19.8" height="9.8"/>
	<polyline clip-path="url(#SVGID_2_)" fill="none" stroke="#601346" stroke-width="2" points="360.3,229.1 314.4,229.1 292.6,252.1 
		292.6,291 314.6,314.1 368.9,314.1 368.9,327.9 	"/>
	<polyline clip-path="url(#SVGID_2_)" fill="none" stroke="#601346" stroke-width="2" points="317.8,354.4 317.8,335.5 301.3,335.5 
		270.3,303.6 270.3,239.8 307.8,205.9 391.2,205.9 	"/>
	<line clip-path="url(#SVGID_2_)" fill="none" stroke="#601346" stroke-width="2" x1="316.7" y1="335.5" x2="330.7" y2="335.5"/>
	<line clip-path="url(#SVGID_2_)" fill="none" stroke="#601346" stroke-width="2" x1="393.8" y1="306.8" x2="407.9" y2="306.8"/>
	<line clip-path="url(#SVGID_2_)" fill="none" stroke="#601346" stroke-width="2" x1="393.8" y1="332.1" x2="407.9" y2="332.1"/>
	<line clip-path="url(#SVGID_2_)" fill="none" stroke="#601346" stroke-width="2" x1="393.8" y1="356.6" x2="407.9" y2="356.6"/>
	<polygon clip-path="url(#SVGID_2_)" fill="#601346" points="275,357.8 275,334.9 294.7,357.8 	"/>
	<polygon clip-path="url(#SVGID_2_)" fill="#601346" points="652.3,206.3 652.3,229.2 632.6,206.3 	"/>
	
		<rect x="563.7" y="152.1" clip-path="url(#SVGID_2_)" fill="#601346" stroke="#601346" stroke-width="2" width="84.2" height="10.7"/>
	<line clip-path="url(#SVGID_2_)" fill="#601346" stroke="#601346" stroke-width="2" x1="568.2" y1="179.3" x2="568.2" y2="162.8"/>
	<line clip-path="url(#SVGID_2_)" fill="#601346" stroke="#601346" stroke-width="2" x1="588.2" y1="152.1" x2="588.2" y2="108"/>
	<polyline clip-path="url(#SVGID_2_)" fill="none" stroke="#601346" stroke-width="2" points="669.8,83.3 612.9,83.3 612.9,151.1 	
		"/>
	<line clip-path="url(#SVGID_2_)" fill="none" stroke="#601346" stroke-width="2" x1="629.6" y1="65.6" x2="629.6" y2="81.8"/>
	<polyline clip-path="url(#SVGID_2_)" fill="none" stroke="#601346" stroke-width="2" points="629.6,151.1 629.6,101.8 687.4,101.8 
			"/>
	<polyline clip-path="url(#SVGID_2_)" fill="none" stroke="#601346" stroke-width="2" points="491.6,217.8 616.2,217.8 587.9,179.3 
		661.1,179.3 661.1,125.6 676.8,125.6 676.8,176.8 689.9,176.8 689.9,126.4 704.3,126.4 704.3,193.2 614.6,193.2 662.2,262.9 
		662.2,208.3 704.3,208.3 704.3,222.8 676.8,222.8 676.8,237.4 719.6,237.4 719.6,167.2 750.9,167.2 750.9,188.2 	"/>
	<line clip-path="url(#SVGID_2_)" fill="none" stroke="#601346" stroke-width="2" x1="609.7" y1="243" x2="639.4" y2="292.5"/>
	<rect x="757.5" y="261.3" clip-path="url(#SVGID_2_)" fill="#601346" width="8.6" height="8.6"/>
	<rect x="736.6" y="261.3" clip-path="url(#SVGID_2_)" fill="#601346" width="8.6" height="8.6"/>
	<rect x="716.1" y="261.3" clip-path="url(#SVGID_2_)" fill="#601346" width="8.6" height="8.6"/>
	<rect x="695" y="261.3" clip-path="url(#SVGID_2_)" fill="#601346" width="8.6" height="8.6"/>
	<polyline clip-path="url(#SVGID_2_)" fill="none" stroke="#601346" stroke-width="2" points="761.8,262 761.8,249.3 678.6,249.3 
		678.6,269.9 605.9,311.2 470.4,311.2 470.4,402.1 	"/>
	<line clip-path="url(#SVGID_2_)" fill="none" stroke="#601346" stroke-width="2" x1="740.9" y1="262" x2="740.9" y2="249.3"/>
	<line clip-path="url(#SVGID_2_)" fill="none" stroke="#601346" stroke-width="2" x1="720.4" y1="262" x2="720.4" y2="249.3"/>
	<line clip-path="url(#SVGID_2_)" fill="none" stroke="#601346" stroke-width="2" x1="699.3" y1="262" x2="699.3" y2="249.3"/>
	<line clip-path="url(#SVGID_2_)" fill="none" stroke="#601346" stroke-width="2" x1="497.3" y1="332.6" x2="603.8" y2="333.9"/>
	<polyline clip-path="url(#SVGID_2_)" fill="none" stroke="#601346" stroke-width="2" points="625.7,392.8 678.8,423 701.5,423 
		747.5,489.8 664.4,489.1 655.6,460.8 593.2,426.3 593.2,477.8 607.9,477.8 607.9,451.9 646.9,472.8 656.6,515.2 747.5,515.2 	"/>
	<polyline clip-path="url(#SVGID_2_)" fill="none" stroke="#601346" stroke-width="2" points="748.5,489.8 769,489.8 807.5,489.8 	
		"/>
	<g clip-path="url(#SVGID_2_)">
		<circle fill="#38112D" stroke="#7C1D58" stroke-width="2" cx="261.9" cy="99.1" r="6.6"/>
		<circle fill="#38112D" stroke="#7C1D58" stroke-width="2" cx="813.1" cy="288.4" r="6.3"/>
		<circle fill="#38112D" stroke="#7C1D58" stroke-width="2" cx="766.1" cy="332.8" r="6.3"/>
		<circle fill="#38112D" stroke="#7C1D58" stroke-width="2" cx="800" cy="355.9" r="6.3"/>
		<circle fill="#38112D" stroke="#7C1D58" stroke-width="2" cx="419.4" cy="269.3" r="6.3"/>
		<circle fill="#38112D" stroke="#7C1D58" stroke-width="2" cx="568.2" cy="186.9" r="6.3"/>
		<circle fill="#38112D" stroke="#7C1D58" stroke-width="2" cx="605.9" cy="236.7" r="6.3"/>
		<circle fill="#38112D" stroke="#7C1D58" stroke-width="2" cx="587.9" cy="101.4" r="6.3"/>
		<circle fill="#38112D" stroke="#7C1D58" stroke-width="2" cx="629.6" cy="58.3" r="6.3"/>
		<circle fill="#38112D" stroke="#7C1D58" stroke-width="2" cx="676.8" cy="83.9" r="6.3"/>
		<circle fill="#38112D" stroke="#7C1D58" stroke-width="2" cx="694.7" cy="101.8" r="6.3"/>
		<circle fill="#38112D" stroke="#7C1D58" stroke-width="2" cx="368.9" cy="249.3" r="6.3"/>
		<circle fill="#38112D" stroke="#7C1D58" stroke-width="2" cx="317.8" cy="361.7" r="6.3"/>
		<circle fill="#38112D" stroke="#7C1D58" stroke-width="2" cx="338.2" cy="335.5" r="6.3"/>
		<circle fill="#38112D" stroke="#7C1D58" stroke-width="2" cx="369.8" cy="334.2" r="6.3"/>
		<circle fill="#38112D" stroke="#7C1D58" stroke-width="2" cx="368.9" cy="229.1" r="6.3"/>
		<circle fill="#38112D" stroke="#7C1D58" stroke-width="2" cx="368.9" cy="186.9" r="6.3"/>
		<circle fill="#38112D" stroke="#7C1D58" stroke-width="2" cx="257.4" cy="190.5" r="6.3"/>
		<circle fill="#38112D" stroke="#7C1D58" stroke-width="2" cx="163.5" cy="229.3" r="6.3"/>
		<circle fill="#38112D" stroke="#7C1D58" stroke-width="2" cx="109" cy="212.2" r="6.3"/>
		<circle fill="#38112D" stroke="#7C1D58" stroke-width="2" cx="109" cy="186.5" r="6.3"/>
		<circle fill="#38112D" stroke="#7C1D58" stroke-width="2" cx="109" cy="58.8" r="6.3"/>
		<circle fill="#38112D" stroke="#7C1D58" stroke-width="2" cx="216" cy="82.5" r="6.3"/>
		<circle fill="#38112D" stroke="#7C1D58" stroke-width="2" cx="216" cy="36.6" r="6.3"/>
		<circle fill="#38112D" stroke="#7C1D58" stroke-width="2" cx="109" cy="15.7" r="6.3"/>
		<circle fill="#38112D" stroke="#7C1D58" stroke-width="2" cx="590" cy="387" r="6.3"/>
		<circle fill="#38112D" stroke="#7C1D58" stroke-width="2" cx="490.7" cy="333.9" r="6.3"/>
		<circle fill="#38112D" stroke="#7C1D58" stroke-width="2" cx="470.9" cy="409.7" r="6.3"/>
		<circle fill="#38112D" stroke="#7C1D58" stroke-width="2" cx="237.3" cy="447.6" r="6.3"/>
		<circle fill="#38112D" stroke="#7C1D58" stroke-width="2" cx="186.1" cy="515.7" r="6.3"/>
		<circle fill="#38112D" stroke="#7C1D58" stroke-width="2" cx="216.9" cy="515.7" r="6.3"/>
		<circle fill="#38112D" stroke="#7C1D58" stroke-width="2" cx="248.4" cy="515.7" r="6.3"/>
		<circle fill="#38112D" stroke="#7C1D58" stroke-width="2" cx="279.2" cy="515.7" r="6.3"/>
		<circle fill="#38112D" stroke="#7C1D58" stroke-width="2" cx="619.4" cy="388.9" r="6.3"/>
		<circle fill="#38112D" stroke="#7C1D58" stroke-width="2" cx="813.9" cy="489.8" r="6.3"/>
		<circle fill="#38112D" stroke="#7C1D58" stroke-width="2" cx="695" cy="460.3" r="6.3"/>
		<circle fill="#38112D" stroke="#7C1D58" stroke-width="2" cx="753.8" cy="515.2" r="6.3"/>
		<rect x="297.1" y="143.4" fill="#38112D" stroke="#7C1D58" stroke-width="2" width="20.7" height="25.8"/>
		<line fill="#38112D" stroke="#7C1D58" stroke-width="2" x1="758.2" y1="333.5" x2="683.7" y2="333.5"/>
		<line fill="#38112D" stroke="#7C1D58" stroke-width="2" x1="84.7" y1="163.5" x2="103.4" y2="181.8"/>
		<line fill="#38112D" stroke="#7C1D58" stroke-width="2" x1="66.2" y1="15.7" x2="100.9" y2="15.7"/>
		<line fill="#38112D" stroke="#7C1D58" stroke-width="4" x1="333.3" y1="361.7" x2="351.6" y2="361.7"/>
		<line fill="#38112D" stroke="#7C1D58" stroke-width="4" x1="361.7" y1="361.7" x2="380" y2="361.7"/>
		<line fill="#38112D" stroke="#7C1D58" stroke-width="4" x1="370.8" y1="352.5" x2="370.8" y2="370.9"/>
		<line fill="#38112D" stroke="#7C1D58" stroke-width="2" x1="724.7" y1="137.4" x2="743" y2="137.4"/>
		<line fill="#38112D" stroke="#7C1D58" stroke-width="2" x1="733.8" y1="128.2" x2="733.8" y2="146.5"/>
		<circle fill="#38112D" stroke="#7C1D58" stroke-width="2" cx="415.3" cy="306.8" r="6.3"/>
		<circle fill="#38112D" stroke="#7C1D58" stroke-width="2" cx="415.3" cy="332.1" r="6.3"/>
		<circle fill="#38112D" stroke="#7C1D58" stroke-width="2" cx="415.3" cy="356.6" r="6.3"/>
		<line fill="#38112D" stroke="#7C1D58" stroke-width="2" x1="745.1" y1="488.6" x2="698.9" y2="463.4"/>
		<line fill="#38112D" stroke="#7C1D58" stroke-width="2" x1="655.6" y1="460.8" x2="677.9" y2="423.9"/>
		<line fill="#38112D" stroke="#7C1D58" stroke-width="2" x1="646.8" y1="454.9" x2="669.1" y2="418.1"/>
	</g>
	<rect x="450" y="446.9" clip-path="url(#SVGID_2_)" fill="#601346" width="20.9" height="20.9"/>
	<rect x="479.6" y="496.7" clip-path="url(#SVGID_2_)" fill="#601346" width="7.4" height="7.4"/>
	<rect x="479.6" y="518" clip-path="url(#SVGID_2_)" fill="#601346" width="7.4" height="7.4"/>
	<line clip-path="url(#SVGID_2_)" fill="none" stroke="#601346" stroke-width="2" x1="458.8" y1="466.6" x2="458.8" y2="580.6"/>
	<path clip-path="url(#SVGID_2_)" fill="none" stroke="#601346" stroke-width="2" d="M480.3,500.6c-0.7,0-19.8,0-19.8,0"/>
	<path clip-path="url(#SVGID_2_)" fill="none" stroke="#601346" stroke-width="2" d="M480.3,521.7c-0.7,0-19.8,0-19.8,0"/>
	<line clip-path="url(#SVGID_2_)" fill="none" stroke="#601346" stroke-width="2" x1="216" y1="-22.2" x2="216" y2="30.3"/>
	<line clip-path="url(#SVGID_2_)" fill="none" stroke="#601346" stroke-width="2" x1="477.6" y1="131" x2="460.3" y2="131"/>
	<circle clip-path="url(#SVGID_2_)" fill="#601346" cx="530.4" cy="135.7" r="1.1"/>
	<line clip-path="url(#SVGID_2_)" fill="none" stroke="#601346" stroke-width="2" x1="540.1" y1="124" x2="540.1" y2="136.8"/>
	<line clip-path="url(#SVGID_2_)" fill="none" stroke="#601346" stroke-width="2" x1="520.7" y1="124" x2="520.7" y2="136.8"/>
</g>
</svg>
