<?xml version="1.0" encoding="utf-8"?>
<!-- Generator: Adobe Illustrator 19.1.0, SVG Export Plug-In . SVG Version: 6.00 Build 0)  -->
<svg version="1.1" id="Layer_1" xmlns="http://www.w3.org/2000/svg" xmlns:xlink="http://www.w3.org/1999/xlink" x="0px" y="0px"
	 viewBox="0 0 46.3 92.3" enable-background="new 0 0 46.3 92.3" xml:space="preserve">
<g opacity="0.6">
	<g>
		<path fill="#B2B2B2" d="M45.2,77.4c0,7.9-6.5,14.5-14.5,14.5H15.6c-7.9,0-14.4-6.5-14.4-14.5V14.9c0-7.9,6.5-14.4,14.4-14.4h15.2
			c7.9,0,14.5,6.5,14.5,14.4V77.4z"/>
		<path fill="none" stroke="#575756" stroke-width="0.85" stroke-miterlimit="10" d="M45.2,77.4c0,7.9-6.5,14.5-14.5,14.5H15.6
			c-7.9,0-14.4-6.5-14.4-14.5V14.9c0-7.9,6.5-14.4,14.4-14.4h15.2c7.9,0,14.5,6.5,14.5,14.4V77.4z"/>
	</g>
	<g>
		<path fill="#B2B2B2" d="M44.2,78.2c0,7-5.7,12.8-12.7,12.8H14.9c-7,0-12.8-5.7-12.8-12.8V14.1c0-7,5.7-12.8,12.8-12.8h16.6
			c7,0,12.7,5.7,12.7,12.8V78.2z"/>
		<path fill="none" stroke="#575756" stroke-width="0.85" stroke-miterlimit="10" d="M44.2,78.2c0,7-5.7,12.8-12.7,12.8H14.9
			c-7,0-12.8-5.7-12.8-12.8V14.1c0-7,5.7-12.8,12.8-12.8h16.6c7,0,12.7,5.7,12.7,12.8V78.2z"/>
	</g>
	<circle fill="#B2B2B2" stroke="#575756" stroke-width="0.85" stroke-miterlimit="10" cx="23.2" cy="86" r="3"/>
	<g>
		<path fill="#B2B2B2" d="M26.2,6.3c0,0.3-0.4,0.5-0.8,0.5H21c-0.5,0-0.9-0.2-0.9-0.5c0-0.3,0.4-0.5,0.9-0.5h4.4
			C25.8,5.9,26.2,6.1,26.2,6.3z"/>
		<path fill="none" stroke="#575756" stroke-width="0.85" stroke-miterlimit="10" d="M26.2,6.3c0,0.3-0.4,0.5-0.8,0.5H21
			c-0.5,0-0.9-0.2-0.9-0.5c0-0.3,0.4-0.5,0.9-0.5h4.4C25.8,5.9,26.2,6.1,26.2,6.3z"/>
	</g>
	<circle fill="#B2B2B2" stroke="#575756" stroke-width="0.85" stroke-miterlimit="10" cx="17" cy="6" r="0.7"/>
	<circle fill="#B2B2B2" stroke="#575756" stroke-miterlimit="10" cx="23.1" cy="3.6" r="0.4"/>
	<g>
		<path fill="#B2B2B2" d="M45.9,23.1c0,0.5-0.2,0.9-0.3,0.9s-0.3-0.4-0.3-0.9v-4.3c0-0.5,0.2-0.9,0.3-0.9s0.3,0.4,0.3,0.9V23.1z"/>
		<path fill="none" stroke="#575756" stroke-width="0.85" stroke-miterlimit="10" d="M45.9,23.1c0,0.5-0.2,0.9-0.3,0.9
			s-0.3-0.4-0.3-0.9v-4.3c0-0.5,0.2-0.9,0.3-0.9s0.3,0.4,0.3,0.9V23.1z"/>
	</g>
	<g>
		<path fill="#B2B2B2" d="M1.1,13.8c0,0.5-0.2,0.9-0.3,0.9s-0.3-0.4-0.3-0.9v-1.7c0-0.5,0.2-0.9,0.3-0.9s0.3,0.4,0.3,0.9V13.8z"/>
		<path fill="none" stroke="#575756" stroke-width="0.85" stroke-miterlimit="10" d="M1.1,13.8c0,0.5-0.2,0.9-0.3,0.9
			s-0.3-0.4-0.3-0.9v-1.7c0-0.5,0.2-0.9,0.3-0.9s0.3,0.4,0.3,0.9V13.8z"/>
	</g>
	<g>
		<path fill="#B2B2B2" d="M1.1,23c0,0.5-0.2,0.9-0.3,0.9S0.4,23.5,0.4,23v-4.1c0-0.5,0.2-0.9,0.3-0.9s0.3,0.4,0.3,0.9V23z"/>
		<path fill="none" stroke="#575756" stroke-width="0.85" stroke-miterlimit="10" d="M1.1,23c0,0.5-0.2,0.9-0.3,0.9S0.4,23.5,0.4,23
			v-4.1c0-0.5,0.2-0.9,0.3-0.9s0.3,0.4,0.3,0.9V23z"/>
	</g>
	<g>
		<path fill="#B2B2B2" d="M1.1,30.3c0,0.5-0.2,0.9-0.3,0.9s-0.3-0.4-0.3-0.9v-4.1c0-0.5,0.2-0.8,0.3-0.8s0.3,0.4,0.3,0.8V30.3z"/>
		<path fill="none" stroke="#575756" stroke-width="0.85" stroke-miterlimit="10" d="M1.1,30.3c0,0.5-0.2,0.9-0.3,0.9
			s-0.3-0.4-0.3-0.9v-4.1c0-0.5,0.2-0.8,0.3-0.8s0.3,0.4,0.3,0.8V30.3z"/>
	</g>
	<g>
		<path fill="#B2B2B2" d="M42.8,80.3c0,0.5-0.4,0.8-0.8,0.8H4.4c-0.5,0-0.9-0.4-0.9-0.8V12.1c0-0.5,0.4-0.9,0.9-0.9h37.5
			c0.5,0,0.8,0.4,0.8,0.9V80.3z"/>
		<path fill="none" stroke="#575756" stroke-width="0.85" stroke-miterlimit="10" d="M42.8,80.3c0,0.5-0.4,0.8-0.8,0.8H4.4
			c-0.5,0-0.9-0.4-0.9-0.8V12.1c0-0.5,0.4-0.9,0.9-0.9h37.5c0.5,0,0.8,0.4,0.8,0.9V80.3z"/>
	</g>
	<rect x="3.5" y="11.2" opacity="0.4" fill="#B2B2B2" stroke="#575756" stroke-miterlimit="10" width="39.2" height="69.9"/>
	<g id="Thing_1_">
		<g id="TopSpokes_1_">
			<g>
				<path fill="#B2B2B2" stroke="#575756" stroke-miterlimit="10" d="M23.9,41.2c0,0.1-0.1,0.1-0.1,0.1h-0.5c-0.1,0-0.1-0.1-0.1-0.1
					v-3.4c0-0.1,0.1-0.1,0.1-0.1h0.5c0.1,0,0.1,0.1,0.1,0.1V41.2z"/>
			</g>
			<g>
				<path fill="#B2B2B2" stroke="#575756" stroke-miterlimit="10" d="M21,41.2c0,0.1-0.1,0.1-0.1,0.1h-0.5c-0.1,0-0.1-0.1-0.1-0.1
					v-3.4c0-0.1,0.1-0.1,0.1-0.1h0.5c0.1,0,0.1,0.1,0.1,0.1V41.2z"/>
			</g>
			<g>
				<path fill="#B2B2B2" stroke="#575756" stroke-miterlimit="10" d="M26.8,41.2c0,0.1-0.1,0.1-0.1,0.1h-0.5c-0.1,0-0.1-0.1-0.1-0.1
					v-3.4c0-0.1,0.1-0.1,0.1-0.1h0.5c0.1,0,0.1,0.1,0.1,0.1V41.2z"/>
			</g>
		</g>
		<g id="BottomSpokes_1_">
			<path fill="#B2B2B2" stroke="#575756" stroke-miterlimit="10" d="M26.8,54.6c0,0.1-0.1,0.1-0.1,0.1h-0.5c-0.1,0-0.1-0.1-0.1-0.1
				v-3.4c0-0.1,0.1-0.1,0.1-0.1h0.5c0.1,0,0.1,0.1,0.1,0.1V54.6z"/>
			<g>
				<path fill="#B2B2B2" stroke="#575756" stroke-miterlimit="10" d="M21,54.6c0,0.1-0.1,0.1-0.1,0.1h-0.5c-0.1,0-0.1-0.1-0.1-0.1
					v-3.4c0-0.1,0.1-0.1,0.1-0.1h0.5c0.1,0,0.1,0.1,0.1,0.1V54.6z"/>
			</g>
			<g>
				<path fill="#B2B2B2" stroke="#575756" stroke-miterlimit="10" d="M23.9,54.6c0,0.1-0.1,0.1-0.1,0.1h-0.5c-0.1,0-0.1-0.1-0.1-0.1
					v-3.4c0-0.1,0.1-0.1,0.1-0.1h0.5c0.1,0,0.1,0.1,0.1,0.1V54.6z"/>
			</g>
		</g>
		<g id="LeftSpokes_1_">
			<g>
				<path fill="#B2B2B2" stroke="#575756" stroke-miterlimit="10" d="M18.9,46.6c0,0.1-0.1,0.1-0.1,0.1h-3.4c-0.1,0-0.1-0.1-0.1-0.1
					V46c0-0.1,0.1-0.1,0.1-0.1h3.4c0.1,0,0.1,0.1,0.1,0.1V46.6z"/>
			</g>
			<g>
				<path fill="#B2B2B2" stroke="#575756" stroke-miterlimit="10" d="M18.9,49.4c0,0.1-0.1,0.1-0.1,0.1h-3.4c-0.1,0-0.1-0.1-0.1-0.1
					v-0.5c0-0.1,0.1-0.1,0.1-0.1h3.4c0.1,0,0.1,0.1,0.1,0.1V49.4z"/>
			</g>
			<g>
				<path fill="#B2B2B2" stroke="#575756" stroke-miterlimit="10" d="M18.8,42.9c0.1,0,0.1,0.1,0.1,0.1v0.5c0,0.1-0.1,0.1-0.1,0.1
					h-3.4c-0.1,0-0.1-0.1-0.1-0.1v-0.5c0-0.1,0.1-0.1,0.1-0.1H18.8z"/>
			</g>
		</g>
		<path id="Body_6_" fill="#B2B2B2" stroke="#575756" stroke-miterlimit="10" d="M18.3,40.9v10.5h10.4V40.9H18.3L18.3,40.9z
			 M23.5,48.4c-1.2,0-2.1-0.9-2.1-2.1s0.9-2.1,2.1-2.1c1.2,0,2.1,0.9,2.1,2.1S24.7,48.4,23.5,48.4z"/>
		<g id="RightSpokes_1_">
			<g>
				<path fill="#B2B2B2" stroke="#575756" stroke-miterlimit="10" d="M31.8,46.6c0,0.1-0.1,0.1-0.1,0.1h-3.4c-0.1,0-0.1-0.1-0.1-0.1
					V46c0-0.1,0.1-0.1,0.1-0.1h3.4c0.1,0,0.1,0.1,0.1,0.1V46.6L31.8,46.6z"/>
			</g>
			<g>
				<path fill="#B2B2B2" stroke="#575756" stroke-miterlimit="10" d="M31.8,43.7c0,0.1-0.1,0.1-0.1,0.1h-3.4c-0.1,0-0.1-0.1-0.1-0.1
					v-0.5c0-0.1,0.1-0.1,0.1-0.1h3.4c0.1,0,0.1,0.1,0.1,0.1V43.7L31.8,43.7z"/>
			</g>
			<g>
				<path fill="#B2B2B2" stroke="#575756" stroke-miterlimit="10" d="M28.3,49.4c-0.1,0-0.1-0.1-0.1-0.1v-0.5c0-0.1,0.1-0.1,0.1-0.1
					h3.4c0.1,0,0.1,0.1,0.1,0.1v0.5c0,0.1-0.1,0.1-0.1,0.1H28.3z"/>
			</g>
		</g>
	</g>
</g>
</svg>
