<?xml version="1.0" encoding="utf-8"?>
<!-- Generator: Adobe Illustrator 19.1.0, SVG Export Plug-In . SVG Version: 6.00 Build 0)  -->
<!DOCTYPE svg PUBLIC "-//W3C//DTD SVG 1.1//EN" "http://www.w3.org/Graphics/SVG/1.1/DTD/svg11.dtd">
<svg version="1.1" id="Layer_1" xmlns="http://www.w3.org/2000/svg" xmlns:xlink="http://www.w3.org/1999/xlink" x="0px" y="0px"
	 width="862.1px" height="540.3px" viewBox="0 0 862.1 540.3" enable-background="new 0 0 862.1 540.3" xml:space="preserve">
<g>
	<defs>
		<rect id="SVGID_3_" x="0" y="0" width="862.1" height="540.3"/>
	</defs>
	<clipPath id="SVGID_2_">
		<use xlink:href="#SVGID_3_"  overflow="visible"/>
	</clipPath>
	<g opacity="0.5" clip-path="url(#SVGID_2_)">
		<polygon fill="none" stroke="#1D3649" stroke-width="2" points="214.5,142 165.6,114.9 164.6,58.9 212.6,30.2 261.4,57.3 
			262.4,113.2 		"/>
		<polygon fill="none" stroke="#1D3649" stroke-width="2" points="93.6,157.8 44.7,130.7 43.8,74.7 91.7,46 140.6,73.1 141.6,129 		
			"/>
		<polygon fill="none" stroke="#1D3649" stroke-width="2" points="650,59.1 601,31.9 600.1,-24 648,-52.8 696.9,-25.7 697.9,30.3 		
			"/>
		<polygon fill="none" stroke="#1D3649" stroke-width="2" points="19.3,61.1 -29.6,34 -30.5,-22 17.4,-50.7 66.3,-23.6 67.3,32.4 		
			"/>
		<polygon fill="none" stroke="#1D3649" stroke-width="2" points="140.1,44.1 91.2,16.9 90.3,-39 138.2,-67.8 187.1,-40.7 
			188.1,15.3 		"/>
		<polygon fill="none" stroke="#1D3649" stroke-width="2" points="261,28.5 212.1,1.3 211.1,-54.6 259.1,-83.4 307.9,-56.3 
			308.9,-0.3 		"/>
		<polyline fill="none" stroke="#1D3649" stroke-width="2" points="93.6,157.8 92.2,73.9 140.1,44.1 213.5,85.8 214.5,142 		"/>
		<polyline fill="none" stroke="#1D3649" stroke-width="2" points="-55.9,-91.4 17.4,-50.7 17.9,-22.7 91.2,16.9 		"/>
		<polyline fill="none" stroke="#1D3649" stroke-width="2" points="-55,-35.4 -53.6,48.4 46.8,101.1 		"/>
		<line fill="none" stroke="#1D3649" stroke-width="2" x1="260" y1="-27.7" x2="261.4" y2="57.3"/>
		<polyline fill="none" stroke="#1D3649" stroke-width="2" points="138.2,-67.8 139.2,-10.8 188.1,15.3 307.9,-56.3 		"/>
		<polyline fill="none" stroke="#1D3649" stroke-width="2" points="576.3,38.9 576.3,-12.4 503.7,-54.4 504.2,-83.9 		"/>
		<polyline fill="none" stroke="#1D3649" stroke-width="2" points="456.2,-55.2 455.2,-110.3 528.4,-152.4 576.3,-124.3 
			577.3,-39.9 649,1.6 650,59.1 		"/>
		<polygon fill="none" stroke="#1D3649" stroke-width="2" points="213.3,421.2 164.4,394.1 163.4,338.1 211.4,309.4 260.2,336.5 
			261.2,392.4 		"/>
		<polygon fill="none" stroke="#1D3649" stroke-width="2" points="285.9,520.2 237,493 236.1,437.1 284,408.3 332.9,435.4 
			333.9,491.4 		"/>
		<polygon fill="none" stroke="#1D3649" stroke-width="2" points="92.2,405.9 43.3,378.8 42.3,322.8 90.3,294.1 139.1,321.2 
			140.1,377.2 		"/>
		<polygon fill="none" stroke="#1D3649" stroke-width="2" points="164.4,308.7 115.5,281.6 114.5,225.6 162.5,196.9 211.3,224 
			212.3,280 		"/>
		<polyline fill="none" stroke="#1D3649" stroke-width="2" points="212.3,500 212.3,448.7 139.7,406.7 140.1,377.2 		"/>
		<polyline fill="none" stroke="#1D3649" stroke-width="2" points="92.2,405.9 91.2,350.8 164.4,308.7 212.3,336.8 213.3,421.2 
			285,462.7 285.9,520.2 		"/>
		<polyline fill="none" stroke="#1D3649" stroke-width="2" points="164.4,308.7 163.9,252.9 211.3,224 		"/>
		<polygon fill="none" stroke="#1D3649" stroke-width="2" points="600.7,506.1 551.8,479 550.9,423 598.8,394.3 647.7,421.4 
			648.7,477.3 		"/>
		<polygon fill="none" stroke="#1D3649" stroke-width="2" points="479.9,521.5 431,494.4 430,438.4 478,409.7 526.8,436.8 
			527.8,492.7 		"/>
		<polygon fill="none" stroke="#1D3649" stroke-width="2" points="721.5,489 672.6,461.9 671.7,405.9 719.6,377.2 768.5,404.3 
			769.5,460.2 		"/>
		<polygon fill="none" stroke="#1D3649" stroke-width="2" points="554.2,618.1 505.3,591 504.3,535 552.3,506.3 601.1,533.4 
			602.1,589.3 		"/>
		<polygon fill="none" stroke="#1D3649" stroke-width="2" points="675,601 626.1,573.9 625.1,517.9 673.1,489.2 722,516.3 
			723,572.3 		"/>
		<polygon fill="none" stroke="#1D3649" stroke-width="2" points="795.9,585.4 746.9,558.3 746,502.3 793.9,473.6 842.8,500.7 
			843.8,556.7 		"/>
		<line fill="none" stroke="#1D3649" stroke-width="2" x1="551.8" y1="479" x2="671.7" y2="405.9"/>
		<line fill="none" stroke="#1D3649" stroke-width="2" x1="599.9" y1="449.6" x2="601.1" y2="533.4"/>
		<polyline fill="none" stroke="#1D3649" stroke-width="2" points="478.9,465.6 552.3,506.3 552.8,534.2 626.1,573.9 		"/>
		<polyline fill="none" stroke="#1D3649" stroke-width="2" points="479.9,521.5 481.3,605.4 581.7,658.1 		"/>
		<line fill="none" stroke="#1D3649" stroke-width="2" x1="794.9" y1="529.3" x2="796.3" y2="614.2"/>
		<polyline fill="none" stroke="#1D3649" stroke-width="2" points="673.1,489.2 674.1,546.1 723,572.3 842.8,500.7 		"/>
		<polyline fill="none" stroke="#1D3649" stroke-width="2" points="648.7,477.3 720.6,433.5 719.6,377.2 		"/>
		<line fill="none" stroke="#1D3649" stroke-width="2" x1="769.5" y1="460.2" x2="793.9" y2="473.6"/>
	</g>
	<g clip-path="url(#SVGID_2_)">
		<polygon fill="none" stroke="#152935" stroke-width="2" points="382.6,71.2 431,99.2 431,155.1 382.6,183 334.2,155.1 334.2,99.2 
					"/>
		<polygon fill="none" stroke="#152935" stroke-width="2" points="503.7,57.4 552.1,85.4 552.1,141.4 503.7,169.3 455.3,141.4 
			455.3,85.4 		"/>
		<polygon fill="none" stroke="#152935" stroke-width="2" points="527.9,266.6 576.3,294.5 576.3,350.5 527.9,378.4 479.5,350.5 
			479.5,294.5 		"/>
		<polygon fill="none" stroke="#152935" stroke-width="2" points="649,253.2 697.4,281.2 697.4,337.2 649,365.1 600.6,337.1 
			600.6,281.2 		"/>
		<polygon fill="none" stroke="#152935" stroke-width="2" points="406.8,281.6 455.2,309.5 455.2,365.5 406.8,393.4 358.4,365.5 
			358.4,309.5 		"/>
		<polygon fill="none" stroke="#152935" stroke-width="2" points="576.3,155.4 624.8,183.3 624.8,239.3 576.3,267.2 528,239.3 
			527.9,183.3 		"/>
		<polygon fill="none" stroke="#152935" stroke-width="2" points="455.3,170.4 503.7,198.3 503.7,254.3 455.3,282.2 406.9,254.3 
			406.8,198.3 		"/>
		<polygon fill="none" stroke="#152935" stroke-width="2" points="334.2,183.9 382.6,211.9 382.6,267.9 334.2,295.8 285.8,267.8 
			285.7,211.9 		"/>
		<polyline fill="none" stroke="#152935" stroke-width="2" points="503.7,57.4 503.7,141.4 455.3,170.4 382.6,127.4 382.6,71.2 		
			"/>
		<line fill="none" stroke="#152935" stroke-width="2" x1="576.3" y1="294.5" x2="455.2" y2="365.5"/>
		<line fill="none" stroke="#152935" stroke-width="2" x1="527.7" y1="323" x2="528" y2="239.3"/>
		<polyline fill="none" stroke="#152935" stroke-width="2" points="649,309.2 576.3,267.2 576.3,239.3 503.7,198.3 		"/>
		<polyline fill="none" stroke="#152935" stroke-width="2" points="649,253.2 649,169.3 549.5,114.9 		"/>
		<line fill="none" stroke="#152935" stroke-width="2" x1="334.2" y1="240.1" x2="334.2" y2="155.1"/>
		<polyline fill="none" stroke="#152935" stroke-width="2" points="455.3,282.2 455.2,225.3 406.8,198.3 285.8,267.8 		"/>
		<polyline fill="none" stroke="#152935" stroke-width="2" points="479.5,294.5 406.8,337.1 406.8,393.4 		"/>
		<line fill="none" stroke="#152935" stroke-width="2" x1="358.4" y1="309.5" x2="334.2" y2="295.8"/>
	</g>
	<g clip-path="url(#SVGID_2_)">
		<circle fill="#325C80" stroke="#152935" stroke-width="2" cx="455.2" cy="225.3" r="9.7"/>
		<circle fill="#325C80" stroke="#152935" stroke-width="2" cx="576.3" cy="239.3" r="9.7"/>
		<circle fill="#325C80" stroke="#152935" stroke-width="2" cx="527.7" cy="323.2" r="9.7"/>
		<circle fill="#325C80" stroke="#152935" stroke-width="2" cx="552.1" cy="113.4" r="9.7"/>
		<circle fill="#325C80" stroke="#152935" stroke-width="2" cx="503.7" cy="60.2" r="9.7"/>
		<circle fill="#325C80" stroke="#152935" stroke-width="2" cx="382.6" cy="127.5" r="9.7"/>
		<circle fill="#325C80" stroke="#152935" stroke-width="2" cx="406.8" cy="197.6" r="9.7"/>
		<circle fill="#325C80" stroke="#152935" stroke-width="2" cx="455.2" cy="309.2" r="9.7"/>
		<circle fill="#325C80" stroke="#152935" stroke-width="2" cx="406.8" cy="393.4" r="9.7"/>
		<circle fill="#325C80" stroke="#152935" stroke-width="2" cx="334.2" cy="295.2" r="9.7"/>
		<circle fill="#325C80" stroke="#152935" stroke-width="2" cx="334.2" cy="183.3" r="9.7"/>
		<circle fill="#325C80" stroke="#152935" stroke-width="2" cx="649" cy="309.2" r="9.7"/>
		<circle fill="#325C80" stroke="#152935" stroke-width="2" cx="382.6" cy="71.5" r="9.7"/>
	</g>
	<g clip-path="url(#SVGID_2_)">
		<circle fill="#264A60" stroke="#1D3649" stroke-width="2" stroke-opacity="0.5" cx="44.3" cy="102.7" r="9.7"/>
		<circle fill="#264A60" stroke="#1D3649" stroke-width="2" stroke-opacity="0.5" cx="93.6" cy="155.1" r="9.7"/>
		<circle fill="#264A60" stroke="#1D3649" stroke-width="2" stroke-opacity="0.5" cx="213.5" cy="85.7" r="9.7"/>
		<circle fill="#264A60" stroke="#1D3649" stroke-width="2" stroke-opacity="0.5" cx="188.1" cy="16" r="9.7"/>
		<circle fill="#264A60" stroke="#1D3649" stroke-width="2" stroke-opacity="0.5" cx="261" cy="29" r="9.7"/>
		<circle fill="#264A60" stroke="#1D3649" stroke-width="2" stroke-opacity="0.5" cx="214.5" cy="141.7" r="9.7"/>
		<circle fill="#264A60" stroke="#1D3649" stroke-width="2" stroke-opacity="0.5" cx="674.1" cy="546.1" r="9.7"/>
		<circle fill="#264A60" stroke="#1D3649" stroke-width="2" stroke-opacity="0.5" cx="552.8" cy="534.2" r="9.7"/>
		<circle fill="#264A60" stroke="#1D3649" stroke-width="2" stroke-opacity="0.5" cx="599.9" cy="449.5" r="9.7"/>
		<circle fill="#264A60" stroke="#1D3649" stroke-width="2" stroke-opacity="0.5" cx="672.6" cy="462.2" r="9.7"/>
		<circle fill="#264A60" stroke="#1D3649" stroke-width="2" stroke-opacity="0.5" cx="719.6" cy="377.2" r="9.7"/>
		<circle fill="#264A60" stroke="#1D3649" stroke-width="2" stroke-opacity="0.5" cx="794" cy="474.2" r="9.7"/>
		<circle fill="#264A60" stroke="#1D3649" stroke-width="2" stroke-opacity="0.5" cx="478.9" cy="465.6" r="9.7"/>
		<circle fill="#264A60" stroke="#1D3649" stroke-width="2" stroke-opacity="0.5" cx="576.3" cy="43.5" r="9.7"/>
		<circle fill="#264A60" stroke="#1D3649" stroke-width="2" stroke-opacity="0.5" cx="649" cy="1.6" r="9.7"/>
		<circle fill="#264A60" stroke="#1D3649" stroke-width="2" stroke-opacity="0.5" cx="212.3" cy="504.6" r="9.7"/>
		<circle fill="#264A60" stroke="#1D3649" stroke-width="2" stroke-opacity="0.5" cx="139.7" cy="406.7" r="9.7"/>
		<circle fill="#264A60" stroke="#1D3649" stroke-width="2" stroke-opacity="0.5" cx="212.3" cy="337.2" r="9.7"/>
		<circle fill="#264A60" stroke="#1D3649" stroke-width="2" stroke-opacity="0.5" cx="285" cy="462.6" r="9.7"/>
		<circle fill="#264A60" stroke="#1D3649" stroke-width="2" stroke-opacity="0.5" cx="163.7" cy="253" r="9.7"/>
		<circle fill="#264A60" stroke="#1D3649" stroke-width="2" stroke-opacity="0.5" cx="91.2" cy="350.9" r="9.7"/>
	</g>
</g>
</svg>
